<?xml version='1.0' encoding='UTF-8' standalone='no'?>
<!-- Created with Fritzing (http://www.fritzing.org/) -->
<svg xmlns:svg='http://www.w3.org/2000/svg' xmlns='http://www.w3.org/2000/svg' version='1.2' baseProfile='tiny' x='0in' y='0in' width='6.67053in' height='5in' viewBox='0 0 480.278 360' >
<g partID='854168780'><g transform='translate(120.278,0)' ><g  gorn="0.1" id="breadboard">
 <rect  x="89.917" y="162.702" height="53.812" fill="#FFFFFF" width="184.031"/>
 <path  stroke-width="1" stroke-miterlimit="10" fill="#F0EFEF" d="M332.636,0.736L27.365,0.736c-14.865,0,-26.936,12.05,-26.936,26.89l0,304.748c0,14.839,12.072,26.89,26.936,26.89l305.271,0c14.863,0,26.936,-12.051,26.936,-26.89L359.572,27.626C359.571,12.786,347.499,0.736,332.636,0.736zM279.312,284.61c0,6.571,-5.388,11.948,-11.971,11.948L93.06,296.558c-6.584,0,-11.972,-5.377,-11.972,-11.952L81.088,165.799c0,-6.573,5.387,-11.952,11.972,-11.952l174.281,0c6.583,0,11.971,5.378,11.971,11.952L279.312,284.61z" stroke="#8B9183"/>
 <rect  x="90.459" y="216.514" stroke-width="1" height="70.771" stroke-miterlimit="10" fill="#E3E3E3" width="179.541" stroke="#010101"/>
 <line  stroke-width="3" y1="110.028" y2="110.028" x1="0" x2="359.143" stroke-miterlimit="10" fill="none" stroke="#FFFFFF"/>
 <path  stroke-width="3" stroke-miterlimit="10" fill="none" d="M309.761,88.117c0,6.573,-4.688,11.951,-10.375,11.951L59.757,100.068c-5.687,0,-10.375,-5.378,-10.375,-11.951l0,-99.591c0,-6.573,4.688,-11.951,10.375,-11.951l239.628,0c5.686,0,10.375,5.378,10.375,11.951L309.761,88.117L309.761,88.117z" stroke="#FFFFFF"/>
 <path  fill="#ABABAB" d="M50.381,1.473l0,86.644c0,6.573,4.688,11.951,10.374,11.951L75.42,100.068c-5.687,0,-10.375,-5.378,-10.375,-11.951l0,0L65.045,1.473L50.381,1.473z"/>
 <rect  x="80.807" y="78.954" height="5.976" gorn="0.1.6" fill="#6B6C6C" width="56.265" id="stroke"/>
 <g  gorn="0.1.7" id="nooks_1_">
  <rect  x="86.792" y="80.45" height="2.888" fill="#010101" width="1.097"/>
  <rect  x="93.975" y="80.45" height="2.888" fill="#010101" width="1.097"/>
  <rect  x="101.158" y="80.45" height="2.888" fill="#010101" width="1.097"/>
  <rect  x="108.341" y="80.45" height="2.888" fill="#010101" width="1.097"/>
  <rect  x="115.523" y="80.45" height="2.888" fill="#010101" width="1.097"/>
  <rect  x="122.707" y="80.45" height="2.888" fill="#010101" width="1.097"/>
  <rect  x="129.889" y="80.45" height="2.888" fill="#010101" width="1.097"/>
 </g>
 <rect  x="222.068" y="78.954" height="5.976" gorn="0.1.8" fill="#6B6C6C" width="56.268" id="stroke_1_"/>
 <g >
  <rect  x="228.157" y="80.45" height="2.888" fill="#010101" width="1.095"/>
  <rect  x="235.34" y="80.45" height="2.888" fill="#010101" width="1.096"/>
  <rect  x="242.523" y="80.45" height="2.888" fill="#010101" width="1.094"/>
  <rect  x="249.706" y="80.45" height="2.888" fill="#010101" width="1.094"/>
  <rect  x="256.889" y="80.45" height="2.888" fill="#010101" width="1.094"/>
  <rect  x="264.07" y="80.45" height="2.888" fill="#010101" width="1.096"/>
  <rect  x="271.254" y="80.45" height="2.888" fill="#010101" width="1.096"/>
 </g>
 <rect  x="82.303" y="80.45" height="2.888" gorn="0.1.10" fill="#010101" width="2.893" id="connector0pin"/>
 <rect  x="89.486" y="80.45" height="2.888" gorn="0.1.11" fill="#010101" width="2.893" id="connector1pin"/>
 <rect  x="96.668" y="80.45" height="2.888" gorn="0.1.12" fill="#010101" width="2.893" id="connector2pin"/>
 <rect  x="103.852" y="80.45" height="2.888" gorn="0.1.13" fill="#010101" width="2.893" id="connector3pin"/>
 <rect  x="111.034" y="80.45" height="2.888" gorn="0.1.14" fill="#010101" width="2.893" id="connector4pin"/>
 <rect  x="118.217" y="80.45" height="2.888" gorn="0.1.15" fill="#010101" width="2.893" id="connector5pin"/>
 <rect  x="125.4" y="80.45" height="2.888" gorn="0.1.16" fill="#010101" width="2.893" id="connector6pin"/>
 <rect  x="132.583" y="80.45" height="2.888" gorn="0.1.17" fill="#010101" width="2.893" id="connector7pin"/>
 <rect  x="223.668" y="80.45" height="2.888" gorn="0.1.18" fill="#010101" width="2.891" id="connector8pin"/>
 <rect  x="230.852" y="80.45" height="2.888" gorn="0.1.19" fill="#010101" width="2.893" id="connector9pin"/>
 <rect  x="238.033" y="80.45" height="2.888" gorn="0.1.20" fill="#010101" width="2.891" id="connector10pin"/>
 <rect  x="245.217" y="80.45" height="2.888" gorn="0.1.21" fill="#010101" width="2.891" id="connector11pin"/>
 <rect  x="252.398" y="80.45" height="2.888" gorn="0.1.22" fill="#010101" width="2.891" id="connector12pin"/>
 <rect  x="259.582" y="80.45" height="2.888" gorn="0.1.23" fill="#010101" width="2.891" id="connector13pin"/>
 <rect  x="266.766" y="80.45" height="2.888" gorn="0.1.24" fill="#010101" width="2.893" id="connector14pin"/>
 <rect  x="273.948" y="80.45" height="2.888" gorn="0.1.25" fill="#010101" width="2.89" id="connector15pin"/>
 <rect  y="106.042" height="2.491" fill="#ABABAB" width="359.143"/>
 <rect  x="90.271" y="160.952" height="16.839" fill="none" width="177.625"/>
 <path  fill="#D1D1D1" d="M260.154,189.124L98.018,189.124c-1.104,0,-2,0.896,-2,2l0,20.333c0,1.104,0.896,2,2,2l162.134,0c1.104,0,2,-0.896,2,-2l0.002,0l0,-20.333C262.154,190.02,261.258,189.124,260.154,189.124zM117.618,207.792l-14.401,0l0,-13l14.401,0L117.618,207.792zM137.63,207.792l-14.401,0l0,-13l14.401,0L137.63,207.792zM157.618,207.792l-14.401,0l0,-13l14.401,0L157.618,207.792zM176.618,207.791l-14.401,0l0,-13l14.401,0L176.618,207.791zM196.285,207.791l-14.401,0l0,-13l14.401,0L196.285,207.791zM216.286,207.792l-14.401,0l0,-13l14.401,0L216.286,207.792zM235.498,207.792l-14.4,0l0,-13l14.4,0L235.498,207.792zM254.953,207.791l-14.401,0l0,-13l14.401,0L254.953,207.791z"/>
 <line  stroke-width="1" y1="165.125" y2="169.372" x1="101.072" x2="96.018" stroke-miterlimit="10" fill="none" stroke="#FFFFFF"/>
 <line  stroke-width="1" y1="169.372" y2="173.792" x1="96.018" x2="101.63" stroke-miterlimit="10" fill="none" stroke="#FFFFFF"/>
 <g  gorn="0.1.31" id="Circles">
  <circle  stroke-width="1" cx="113.327" cy="229.998" stroke-miterlimit="10" r="5" fill="none" stroke="#9C9C9D"/>
  <circle  stroke-width="1" cx="113.327" cy="245.792" stroke-miterlimit="10" r="5" fill="none" stroke="#9C9C9D"/>
  <circle  stroke-width="1" cx="113.327" cy="261.792" stroke-miterlimit="10" r="5" fill="none" stroke="#9C9C9D"/>
  <circle  stroke-width="1" cx="113.327" cy="277.792" stroke-miterlimit="10" r="5" fill="none" stroke="#9C9C9D"/>
  <circle  stroke-width="1" cx="189.085" cy="229.872" stroke-miterlimit="10" r="5" fill="none" stroke="#9C9C9D"/>
  <circle  stroke-width="1" cx="189.085" cy="245.792" stroke-miterlimit="10" r="5" fill="none" stroke="#9C9C9D"/>
  <circle  stroke-width="1" cx="189.085" cy="261.792" stroke-miterlimit="10" r="5" fill="none" stroke="#9C9C9D"/>
  <circle  stroke-width="1" cx="189.085" cy="277.792" stroke-miterlimit="10" r="5" fill="none" stroke="#9C9C9D"/>
 </g>
 <g >
  <g transform="matrix(1, 0, 0, 1, 196.285, 232.792)">
   <g >
    <g >
     <g >
      <g >
       <g >
        <g >
         <g >
          <g >
           <g transform="matrix(1, 0, 0, 1, 0.000152588, -1.52588e-05)">
            <g >
             <g >
              <g >
               <g >
                <text  font-family="DroidSans" font-size="8" fill="#509A44">Digital Input</text>
               </g>
              </g>
             </g>
            </g>
           </g>
          </g>
         </g>
        </g>
       </g>
      </g>
     </g>
    </g>
   </g>
  </g>
 </g>
 <g transform="matrix(1, 0, 0, 1, 121.918, 232.792)">
  <g >
   <g >
    <g >
     <g >
      <g >
       <g >
        <g >
         <g >
          <g transform="matrix(1, 0, 0, 1, -3.05176e-05, -1.52588e-05)">
           <g >
            <g >
             <g >
              <g >
               <text  font-family="DroidSans" font-size="8" fill="#9C9C9D">Disconnected</text>
              </g>
             </g>
            </g>
           </g>
          </g>
         </g>
        </g>
       </g>
      </g>
     </g>
    </g>
   </g>
  </g>
 </g>
 <g transform="matrix(1, 0, 0, 1, 121.918, 248.626)">
  <g >
   <g >
    <g >
     <g >
      <g >
       <g >
        <g >
         <g >
          <g transform="matrix(1, 0, 0, 1, -3.05176e-05, -3.05176e-05)">
           <g >
            <g >
             <g >
              <g >
               <text  font-family="DroidSans" font-size="8" fill="#E94033">Power</text>
              </g>
             </g>
            </g>
           </g>
          </g>
         </g>
        </g>
       </g>
      </g>
     </g>
    </g>
   </g>
  </g>
 </g>
 <g transform="matrix(1, 0, 0, 1, 121.918, 264.959)">
  <g >
   <g >
    <g >
     <g >
      <g >
       <g >
        <g >
         <g >
          <g transform="matrix(1, 0, 0, 1, -3.05176e-05, -3.05176e-05)">
           <g >
            <g >
             <g >
              <g >
               <text  font-family="DroidSans" font-size="8" fill="#010101">Ground</text>
              </g>
             </g>
            </g>
           </g>
          </g>
         </g>
        </g>
       </g>
      </g>
     </g>
    </g>
   </g>
  </g>
 </g>
 <g transform="matrix(1, 0, 0, 1, 121.918, 280.626)">
  <g >
   <g >
    <g >
     <g >
      <g >
       <g >
        <g >
         <g >
          <g transform="matrix(1, 0, 0, 1, -3.05176e-05, -3.05176e-05)">
           <g >
            <g >
             <g >
              <g >
               <text  font-family="DroidSans" font-size="8" fill="#F29D44">Analog</text>
              </g>
             </g>
            </g>
           </g>
          </g>
         </g>
        </g>
       </g>
      </g>
     </g>
    </g>
   </g>
  </g>
 </g>
 <g >
  <g transform="matrix(1, 0, 0, 1, 196.285, 248.626)">
   <g >
    <g >
     <g >
      <g >
       <g >
        <g >
         <g >
          <g >
           <g transform="matrix(1, 0, 0, 1, 0.000152588, -3.05176e-05)">
            <g >
             <g >
              <g >
               <g >
                <text  font-family="DroidSans" font-size="8" fill="#5397D1">Digital Output</text>
               </g>
              </g>
             </g>
            </g>
           </g>
          </g>
         </g>
        </g>
       </g>
      </g>
     </g>
    </g>
   </g>
  </g>
 </g>
 <g >
  <g transform="matrix(1, 0, 0, 1, 196.285, 264.959)">
   <g >
    <g >
     <g >
      <g >
       <g >
        <g >
         <g >
          <g >
           <g transform="matrix(1, 0, 0, 1, 0.000152588, -3.05176e-05)">
            <g >
             <g >
              <g >
               <g >
                <text  font-family="DroidSans" font-size="8" fill="#7C63AB">12C Clock</text>
               </g>
              </g>
             </g>
            </g>
           </g>
          </g>
         </g>
        </g>
       </g>
      </g>
     </g>
    </g>
   </g>
  </g>
 </g>
 <g >
  <g transform="matrix(1, 0, 0, 1, 196.69, 280.626)">
   <g >
    <g >
     <g >
      <g >
       <g >
        <g >
         <g >
          <g >
           <g transform="matrix(1, 0, 0, 1, -0.000549316, -3.05176e-05)">
            <g >
             <g >
              <g >
               <g >
                <text  font-family="DroidSans" font-size="8" fill="#B774B1">12C Data</text>
               </g>
              </g>
             </g>
            </g>
           </g>
          </g>
         </g>
        </g>
       </g>
      </g>
     </g>
    </g>
   </g>
  </g>
 </g>
 <circle  cx="113.327" cy="229.871" r="3.25" fill="#9C9C9D"/>
 <path  fill="#010101" d="M269.263,153.167L90.856,153.167c-5.55,0,-10.049,4.477,-10.049,10L80.807,286.5c0,5.522,4.499,10,10.049,10l178.406,0c5.55,0,10.049,-4.478,10.049,-10L279.311,163.167C279.312,157.644,274.812,153.167,269.263,153.167zM270.998,286.11c0,1.082,-0.909,1.961,-2.028,1.961L91.449,288.071c-1.12,0,-2.028,-0.879,-2.028,-1.961L89.421,164.664c0,-1.083,0.908,-1.961,2.028,-1.961L268.97,162.703c1.119,0,2.028,0.879,2.028,1.961L270.998,286.11z"/>
 <line  stroke-width="1" y1="216.514" y2="216.514" x1="270" x2="90.459" stroke-miterlimit="10" fill="none" stroke="#010101"/>
</g>
</g></g><path stroke='#000000' stroke-width='2.16' stroke-linecap='round' stroke-linejoin='round' fill='none' d='M80.4939,210.774L218.427,81.894' />
<path stroke='#ff0000' stroke-width='2.16' stroke-linecap='round' stroke-linejoin='round' fill='none' d='M80.7199,204.047L211.245,81.894' />
<path stroke='#ffff00' stroke-width='2.16' stroke-linecap='round' stroke-linejoin='round' fill='none' d='M80.604,197.291L204.062,81.894' />
<g partID='854167990'><g transform='translate(0,150.698)' ><g transform="matrix(1, 0, 0, 1, -0.400297, 32.424)">
 <g  id="breadboard">
  <rect  x="73.0462" y="20.1499" height="0.72" fill="none" width="0.72" id="connector0pin"/>
  <rect  x="73.1246" y="18.1174" height="0.72" fill="none" width="0.72" id="connector1pin"/>
  <rect  x="73.0462" y="16.1136" height="0.72" fill="none" width="0.72" id="connector2pin"/>
  <g  stroke-width="2.16" y1="38.406" y2="39.406" x1="112.353" x2="113.976032" stroke-linecap="round" fill="none" stroke="#000000" id="connector0leg"/>
  <g  stroke-width="2.16" y1="29.063" y2="29.406" x1="112.667" x2="113.976032" stroke-linecap="round" fill="none" stroke="#FF0000" id="connector1leg"/>
  <g  stroke-width="2.16" y1="19.68" y2="19.406" x1="112.506" x2="113.976032" stroke-linecap="round" fill="none" stroke="#FFFF00" id="connector2leg"/>
  <path  stroke-width="2.16" fill="none" d="M73.0462,20.1499c0,0,-5.09688,-1.34568,7.848,7.5024" stroke="#000000" id="path7"/>
  <path  stroke-width="2.16" fill="none" d="M73.1246,18.1174c4.03488,0,4.1076,1.17288,7.9956,2.808" stroke="#FF0000" id="path9"/>
  <path  stroke-width="2.16" fill="none" d="M73.0462,16.1136c5.382,0,7.59816,-3.17664,7.95816,-0.936" stroke="#FFFF00" id="path11"/>
  <polygon  fill="#333333" id="polygon13" points="0.40032,6.69744,12.5078,6.69744,12.5078,-6.75648,70.3562,-6.75648,70.3562,6.69744,82.463,6.69744,82.463,8.04168,70.3562,8.04168,70.3562,33.6017,12.5078,33.6017,12.5078,8.04168,0.40032,8.04168"/>
  <polygon  id="polygon15" points="8.47152,8.04168,12.5078,8.04168,12.5078,33.6017,8.47152,29.5668"/>
  <polygon  fill="#999999" id="polygon17" points="12.5078,6.69744,0.40032,6.69744,0.40032,-0.03024,8.47152,-0.03024,8.47152,2.6604"/>
  <polygon  fill="#999999" id="polygon19" points="12.5078,-6.75648,8.47152,-10.7921,8.47152,-18.864,12.5078,-22.8996,70.3562,-22.8996,74.3911,-18.864,74.3911,-10.7921,70.3562,-6.75648"/>
  <polygon  fill="#666666" id="polygon21" points="74.3911,8.04168,70.3562,8.04168,70.3562,33.6017,74.3911,29.5668"/>
  <polygon  fill="#999999" id="polygon23" points="70.3562,6.69744,82.4638,6.69744,82.4638,-0.03024,74.3911,-0.03024,74.3911,2.6604"/>
  <polygon  id="polygon25" points="8.47152,-10.7921,12.5078,-6.75648,12.5078,6.69744,8.47152,2.6604"/>
  <polygon  fill="#666666" id="polygon27" points="74.3911,-10.7921,70.3562,-6.75648,70.3562,6.69744,74.3911,2.6604"/>
  <path  fill="#CCCCCC" d="M32.0191,-12.6763c-4.72464,2.5992,-9.92592,1.10952,-11.911,-0.11664C18.1224,-14.0191,6.38568,-24.0034,4.81032,-24.9962c-1.5768,-0.99288,-1.40184,-2.3904,-1.40184,-4.41432c0,-2.57544,1.28448,1.92672,3.97152,3.15288c2.68488,1.22616,27.1318,4.24296,27.1318,8.7192C34.5103,-16.1762,35.0554,-14.3467,32.0191,-12.6763z" id="path29"/>
  <path  fill="#FFFFFF" d="M32.0191,-14.0544c-4.49568,2.97792,-9.92592,1.10952,-11.911,-0.11736C18.1224,-15.3979,6.38568,-25.3822,4.81032,-26.375c-1.5768,-0.99216,-2.21904,-3.91176,-0.05832,-5.31288c2.16,-1.40112,5.13792,-0.58464,7.82352,0.64224c2.6856,1.22616,13.9558,5.95512,17.8085,8.2332C34.2382,-20.5358,36.5162,-17.0323,32.0191,-14.0544zM8.39088,-27.6206c1.89216,0,3.42648,-0.7668,3.42648,-1.71288s-1.53432,-1.71216,-3.42648,-1.71216c-1.89216,0,-3.42576,0.76608,-3.42576,1.71216S6.49872,-27.6206,8.39088,-27.6206z" id="path31"/>
  <g  id="g33">
   <path  fill="#CCCCCC" d="M11.772,-28.9649c-0.33984,-0.7668,-1.70568,-1.34064,-3.34296,-1.34064c-1.63584,0,-3.04632,0.57312,-3.38616,1.33992l0.00288,0.00072c-0.05184,-0.1188,-0.08064,-0.2412,-0.08064,-0.36792c0,-0.94608,1.5336,-1.71216,3.42576,-1.71216c1.89216,0,3.42648,0.76608,3.42648,1.71216c0,0.12672,0,0.25632,-0.05184,0.37512L11.772,-28.9649z" id="path35"/>
  </g>
  <g  id="g37">
   <ellipse  cx="25.9862" cy="-18.2779" rx="5.76144" ry="3.2148" fill="#999999" id="ellipse39"/>
   <g  id="g41">
    <path  fill="#666666" d="M20.3285,-18.3089c0.57168,1.38168,2.8692,2.41632,5.62104,2.41632c2.75184,0,5.12352,-1.03392,5.69664,-2.41632l-0.00576,0c0.08712,0.21312,0.13536,0.43488,0.13536,0.6624c0,1.70496,-2.57904,3.08736,-5.76144,3.08736c-3.1824,0,-5.76144,-1.3824,-5.76144,-3.08736c0,-0.22752,-0.00072,-0.46224,0.0864,-0.67536L20.3285,-18.3089z" id="path43"/>
   </g>
  </g>
  <g  id="g45">
   <path  fill="#FFCC33" d="M40.7052,-16.7213l0,0.81792l2.45232,0l0,0.8172l0.8172,0l0,0.8172l-0.8172,0l0,0.81792l-4.08816,0l0,-0.81792l3.26952,0l0,-0.8172l-2.45232,0l0,-0.8172l-0.8172,0l0,-0.81792l0.8172,0l0,-0.8172l4.08816,0l0,0.8172L40.7052,-16.7213z" id="path47"/>
   <path  fill="#FFCC33" d="M49.6966,-17.5385l0,0.8172l-3.26952,0l0,0.81792l2.45232,0l0,0.8172l-2.45232,0l0,0.8172l3.26952,0l0,0.81792l-4.90464,0l0,-4.08744L49.6966,-17.5385L49.6966,-17.5385z" id="path49"/>
   <path  fill="#FFCC33" d="M54.6019,-16.7213l0.81864,0l0,1.63512l-0.81864,0l0,0.8172l0.81864,0l0,0.81792l-2.45232,0l0,-0.81792L52.1496,-14.269l0,0.81792l-1.63512,0l0,-4.08744l4.08744,0L54.6019,-16.7213L54.6019,-16.7213zM53.784,-16.7213L52.1496,-16.7213l0,1.63512L53.784,-15.0862L53.784,-16.7213z" id="path51"/>
   <path  fill="#FFCC33" d="M61.1417,-17.5385l0,1.63512l-0.8172,0l0,1.6344l-0.81936,0l0,0.81792l-1.63512,0l0,-0.81792l-0.8172,0l0,-1.6344l-0.81792,0l0,-1.63512l1.63512,0l0,1.63512l1.63512,0l0,-1.63512L61.1417,-17.5385z" id="path53"/>
   <path  fill="#FFCC33" d="M62.7761,-13.451l0,-0.81792l-0.8172,0l0,-2.45232l0.8172,0l0,-0.8172l3.26952,0l0,0.8172l0.81792,0l0,2.45232L66.0456,-14.269l0,0.81792L62.7761,-13.451L62.7761,-13.451zM65.2291,-14.269l0,-2.45232l-1.63512,0l0,2.45232L65.2291,-14.269z" id="path55"/>
  </g>
 </g>
</g>
</g></g></svg>