<?xml version="1.0" encoding="utf-8"?>
<!-- Generator: Adobe Illustrator 17.1.0, SVG Export Plug-In . SVG Version: 6.00 Build 0)  -->
<!DOCTYPE svg PUBLIC "-//W3C//DTD SVG 1.1//EN" "http://www.w3.org/Graphics/SVG/1.1/DTD/svg11.dtd">
<svg version="1.1" id="Layer_1" xmlns="http://www.w3.org/2000/svg" xmlns:xlink="http://www.w3.org/1999/xlink" x="0px" y="0px"
	 viewBox="209.1 0 807 792" enable-background="new 209.1 0 807 792" xml:space="preserve">
<g>
	<g>
		<g>
			<path fill="#FFFFFF" d="M612,0c-52.3,0-94.6,6.6-140.3,25.1c3.7-0.9,0,0,3.8-0.9c-68.1,26.6-114.8,86.3-114.8,148.3
				c0,1.9,0,1.9,0,3.7c0,82.9,94.7,153.3,211.7,153.3c116.9,0,212.2-71.2,212.2-154.1c0-1.8,0-1.6,0-3.1c-1.5-30-15.9-55.4-32.5-72
				c-6.5-6.5-13.4-12.1-20.3-16.8c4.2,8.1,6.5,16.9,6.5,26c0,44.8-54.2,81.1-121.2,81.1c-66.9,0-121.1-36.3-121.1-81.1
				c0-39.5,42.1-72.3,97.8-79.5c0.1,0,0.1,0,0.1,0c2.4-0.3,4.8-0.5,7.2-0.7c3.4-0.3,6.8-0.3,10.2-0.5c3.9-0.1,8.5-0.1,13.7,0
				c0.5,0,1,0,1.5,0.1c1.1,0,2.2,0,3.4,0.1c5.2,0.4,9.4,0.2,14.3,1c0.3-0.3,1.3,0.3,1.6,0c14.4,1.3,31.3,3.9,49.8,8.4
				c15.8,3.9,32.7,9.3,50.4,16.6c0.8-0.4-0.7,0.4,0,0c106,47.7,179.5,135.3,179.5,237.1C925.5,444.5,766,568,569.3,568
				c-173.8,0-318.5-96.4-349.8-223.9c-2.2,17-3.5,34.3-3.5,51.9c0,218.7,177.3,396,396,396s396-177.3,396-396S830.7,0,612,0z"/>
		</g>
	</g>
</g>
</svg>
