<?xml version='1.0' encoding='UTF-8' standalone='no'?>
<!-- Created with Fritzing (http://www.fritzing.org/) -->
<svg xmlns:svg='http://www.w3.org/2000/svg' xmlns='http://www.w3.org/2000/svg' version='1.2' baseProfile='tiny' x='0in' y='0in' width='6.2518in' height='5in' viewBox='0 0 450.13 360' >
<g partID='77060'><g  gorn="0.1" id="breadboard">
 <path  fill="#7DC042" d="M359.931,332.68c0,14.885,-12.088,26.976,-26.973,26.976L27.268,359.656c-14.884,0,-26.973,-12.091,-26.973,-26.976L0.295,26.974C0.295,12.087,12.383,0,27.268,0l305.69,0c14.885,0,26.973,12.087,26.973,26.974L359.931,332.68z"/>
 <g  gorn="0.1.1" id="holes">
  <circle  fill="#526E32" cx="48.345" cy="255.154" r="7.193"/>
  <circle  fill="#526E32" cx="48.345" cy="183.525" r="7.194"/>
  <circle  fill="#526E32" cx="48.345" cy="110.594" r="7.193"/>
  <circle  fill="#526E32" cx="318.372" cy="255.154" r="7.193"/>
  <circle  fill="#526E32" cx="318.372" cy="183.525" r="7.194"/>
  <circle  fill="#526E32" cx="318.372" cy="110.594" r="7.193"/>
  <circle  fill="#526E32" cx="48.345" cy="37.661" r="7.193"/>
  <circle  fill="#526E32" cx="318.372" cy="37.661" r="7.193"/>
  <circle  fill="#526E32" cx="48.345" cy="310.002" r="7.193"/>
  <circle  fill="#526E32" cx="318.372" cy="310.002" r="7.193"/>
 </g>
 <path  fill="#526E32" gorn="0.1.2" id="button" d="M203.488,33.166c0,-5.794,-4.695,-10.489,-10.487,-10.489l-19.478,0c-5.795,0,-10.491,4.695,-10.491,10.489l0,18.482c0,5.794,4.696,10.489,10.491,10.489l19.478,0c5.792,0,10.487,-4.695,10.487,-10.489L203.488,33.166z"/>
 <path  fill="#FFFFFF" gorn="0.1.3" id="button_1_" d="M202.491,34.268c0,-5.793,-4.696,-10.489,-10.491,-10.489l-17.482,0c-5.792,0,-10.487,4.695,-10.487,10.489l0,16.485c0,5.793,4.696,10.489,10.487,10.489L192,61.242c5.795,0,10.491,-4.695,10.491,-10.489L202.491,34.268z"/>
 <path  fill="#72A541" d="M295.895,117.287L295.895,80.82L295.895,61.74l0,-4.397c0,-8.19,-6.693,-14.884,-14.884,-14.884c-0.103,0,-0.299,0,-0.399,0l-0.1,0l-35.365,0c-0.299,0,-0.5,0.199,-0.5,0.498L244.647,61.74l0,7.99099L121.571,69.731L121.571,61.74L121.571,42.958c0,-0.3,-0.199,-0.498,-0.5,-0.498L85.7081,42.46l-0.099,0c-0.101,0,-0.3,0,-0.399,0c-8.19202,0,-14.885,6.694,-14.885,14.884l0,4.397l0,19.081l0,36.465c0,0.3,0.199,0.5,0.5,0.5l50.25,0c0.298,0,0.499,-0.2,0.499,-0.5l0,-1.697l123.074,0l0,1.697c0,0.3,0.199,0.5,0.502,0.5l50.148,0C295.693,117.787,295.895,117.587,295.895,117.287zM244.748,99.005L121.573,99.005L121.573,86.3172l123.073,0l0,12.688L244.748,99.005z"/>
 <path  fill="#526E32" d="M81.612,53.648c-0.1,-4.296,0.399,-9.99101,9.98899,-10.79c0,-0.3,-0.2,-0.5,-0.5,-0.5l-5.395,0l-0.099,0c-0.101,0,-0.3,0,-0.399,0c-8.19202,0,-14.885,6.693,-14.885,14.887l0,4.395l0,19.082l0,36.466c0,0.3,0.199,0.5,0.5,0.5l10.29,0c0.3,0,0.5,-0.199,0.5,-0.5L81.612,53.648L81.612,53.648z"/>
 <rect  width="2.497" x="181.91" y="30.768" fill="#BCBCBC" height="14.187"/>
 <path  fill="#010101" d="M293.598,292.321c0,2.995,-2.197,5.395,-4.994,5.395L75.2198,297.716c-2.798,0,-4.996,-2.397,-4.996,-5.395L70.224,227.78c0,-2.996,2.198,-5.396,4.996,-5.396l213.383,0c2.797,0,4.994,2.399,4.994,5.396L293.597,292.321L293.598,292.321z"/>
 <path  fill="#7A1F1F" gorn="0.1.8" id="redboard" d="M288.702,133.173L75.2198,133.173c-2.798,0,-4.996,2.198,-4.996,4.996l0,63.237l0,20.979l0,4.995l4.996,0l213.584,0l4.993,0l0,-4.995l0,-20.979l0,-63.239C293.798,135.369,291.501,133.173,288.702,133.173z"/>
 <g transform="matrix(0.9999, 0, 0, 1, 122.533, 206.677)">
  <g >
   <g >
    <g >
     <text  fill="#FFFAFC" font-family="OCRA" font-size="2.9972">10</text>
    </g>
   </g>
  </g>
 </g>
 <g transform="matrix(0.9999, 0, 0, 1, 93.7606, 220.539)">
  <g >
   <g >
    <g >
     <text  fill="#FFFAFC" font-family="OCRA" font-size="2.9972">1</text>
    </g>
   </g>
  </g>
 </g>
 <g transform="matrix(0.9999, 0, 0, 1, 93.7606, 206.677)">
  <g >
   <g >
    <g >
     <text  fill="#FFFAFC" font-family="OCRA" font-size="2.9972">2</text>
    </g>
   </g>
  </g>
 </g>
 <g transform="matrix(0.9999, 0, 0, 1, 266.445, 220.539)">
  <g >
   <g >
    <g >
     <text  fill="#FFFAFC" font-family="OCRA" font-size="2.9972">49</text>
    </g>
   </g>
  </g>
 </g>
 <g transform="matrix(0.9999, 0, 0, 1, 259.198, 220.539)">
  <g >
   <g >
    <g >
     <text  fill="#FFFAFC" font-family="OCRA" font-size="2.9972">47</text>
    </g>
   </g>
  </g>
 </g>
 <g transform="matrix(0.9999, 0, 0, 1, 252.008, 220.539)">
  <g >
   <g >
    <g >
     <text  fill="#FFFAFC" font-family="OCRA" font-size="2.9972">45</text>
    </g>
   </g>
  </g>
 </g>
 <g transform="matrix(0.9999, 0, 0, 1, 266.445, 206.677)">
  <g >
   <g >
    <g >
     <text  fill="#FFFAFC" font-family="OCRA" font-size="2.9972">50</text>
    </g>
   </g>
  </g>
 </g>
 <g transform="matrix(0.9999, 0, 0, 1, 259.198, 206.677)">
  <g >
   <g >
    <g >
     <text  fill="#FFFAFC" font-family="OCRA" font-size="2.9972">48</text>
    </g>
   </g>
  </g>
 </g>
 <g transform="matrix(0.9999, 0, 0, 1, 252.008, 206.677)">
  <g >
   <g >
    <g >
     <text  fill="#FFFAFC" font-family="OCRA" font-size="2.9972">46</text>
    </g>
   </g>
  </g>
 </g>
 <g transform="matrix(0.9999, 0, 0, 1, 244.871, 206.677)">
  <g >
   <g >
    <g >
     <text  fill="#FFFAFC" font-family="OCRA" font-size="2.9972">44</text>
    </g>
   </g>
  </g>
 </g>
 <g transform="matrix(0.9999, 0, 0, 1, 237.619, 206.677)">
  <g >
   <g >
    <g >
     <text  fill="#FFFAFC" font-family="OCRA" font-size="2.9972">42</text>
    </g>
   </g>
  </g>
 </g>
 <g transform="matrix(0.9999, 0, 0, 1, 230.482, 206.677)">
  <g >
   <g >
    <g >
     <text  fill="#FFFAFC" font-family="OCRA" font-size="2.9972">40</text>
    </g>
   </g>
  </g>
 </g>
 <g transform="matrix(0.9999, 0, 0, 1, 223.232, 206.677)">
  <g >
   <g >
    <g >
     <text  fill="#FFFAFC" font-family="OCRA" font-size="2.9972">38</text>
    </g>
   </g>
  </g>
 </g>
 <g transform="matrix(0.9999, 0, 0, 1, 216.042, 206.677)">
  <g >
   <g >
    <g >
     <text  fill="#FFFAFC" font-family="OCRA" font-size="2.9972">36</text>
    </g>
   </g>
  </g>
 </g>
 <g transform="matrix(0.9999, 0, 0, 1, 208.848, 206.677)">
  <g >
   <g >
    <g >
     <text  fill="#FFFAFC" font-family="OCRA" font-size="2.9972">34</text>
    </g>
   </g>
  </g>
 </g>
 <g transform="matrix(0.9999, 0, 0, 1, 201.711, 206.677)">
  <g >
   <g >
    <g >
     <text  fill="#FFFAFC" font-family="OCRA" font-size="2.9972">32</text>
    </g>
   </g>
  </g>
 </g>
 <g transform="matrix(0.9999, 0, 0, 1, 194.465, 206.677)">
  <g >
   <g >
    <g >
     <text  fill="#FFFAFC" font-family="OCRA" font-size="2.9972">30</text>
    </g>
   </g>
  </g>
 </g>
 <g transform="matrix(0.9999, 0, 0, 1, 187.266, 206.677)">
  <g >
   <g >
    <g >
     <text  fill="#FFFAFC" font-family="OCRA" font-size="2.9972">28</text>
    </g>
   </g>
  </g>
 </g>
 <g transform="matrix(0.9999, 0, 0, 1, 180.078, 206.677)">
  <g >
   <g >
    <g >
     <text  fill="#FFFAFC" font-family="OCRA" font-size="2.9972">26</text>
    </g>
   </g>
  </g>
 </g>
 <g transform="matrix(0.9999, 0, 0, 1, 172.937, 206.677)">
  <g >
   <g >
    <g >
     <text  fill="#FFFAFC" font-family="OCRA" font-size="2.9972">24</text>
    </g>
   </g>
  </g>
 </g>
 <g transform="matrix(0.9999, 0, 0, 1, 165.689, 206.677)">
  <g >
   <g >
    <g >
     <text  fill="#FFFAFC" font-family="OCRA" font-size="2.9972">22</text>
    </g>
   </g>
  </g>
 </g>
 <g transform="matrix(0.9999, 0, 0, 1, 158.499, 206.677)">
  <g >
   <g >
    <g >
     <text  fill="#FFFAFC" font-family="OCRA" font-size="2.9972">20</text>
    </g>
   </g>
  </g>
 </g>
 <g transform="matrix(0.9999, 0, 0, 1, 151.358, 206.677)">
  <g >
   <g >
    <g >
     <text  fill="#FFFAFC" font-family="OCRA" font-size="2.9972">18</text>
    </g>
   </g>
  </g>
 </g>
 <g transform="matrix(0.9999, 0, 0, 1, 144.112, 206.677)">
  <g >
   <g >
    <g >
     <text  fill="#FFFAFC" font-family="OCRA" font-size="2.9972">16</text>
    </g>
   </g>
  </g>
 </g>
 <g transform="matrix(0.9999, 0, 0, 1, 136.916, 206.677)">
  <g >
   <g >
    <g >
     <text  fill="#FFFAFC" font-family="OCRA" font-size="2.9972">14</text>
    </g>
   </g>
  </g>
 </g>
 <g transform="matrix(0.9999, 0, 0, 1, 129.782, 206.677)">
  <g >
   <g >
    <g >
     <text  fill="#FFFAFC" font-family="OCRA" font-size="2.9972">12</text>
    </g>
   </g>
  </g>
 </g>
 <g transform="matrix(0.9999, 0, 0, 1, 115.339, 206.677)">
  <g >
   <g >
    <g >
     <text  fill="#FFFAFC" font-family="OCRA" font-size="2.9972">8</text>
    </g>
   </g>
  </g>
 </g>
 <g transform="matrix(0.9999, 0, 0, 1, 108.147, 206.677)">
  <g >
   <g >
    <g >
     <text  fill="#FFFAFC" font-family="OCRA" font-size="2.9972">6</text>
    </g>
   </g>
  </g>
 </g>
 <g transform="matrix(0.9999, 0, 0, 1, 100.952, 206.677)">
  <g >
   <g >
    <g >
     <text  fill="#FFFAFC" font-family="OCRA" font-size="2.9972">4</text>
    </g>
   </g>
  </g>
 </g>
 <g transform="matrix(0.9999, 0, 0, 1, 201.654, 220.539)">
  <g >
   <g >
    <g >
     <text  fill="#FFFAFC" font-family="OCRA" font-size="2.9972">31</text>
    </g>
   </g>
  </g>
 </g>
 <g transform="matrix(0.9999, 0, 0, 1, 194.466, 220.539)">
  <g >
   <g >
    <g >
     <text  fill="#FFFAFC" font-family="OCRA" font-size="2.9972">29</text>
    </g>
   </g>
  </g>
 </g>
 <g transform="matrix(0.9999, 0, 0, 1, 187.266, 220.539)">
  <g >
   <g >
    <g >
     <text  fill="#FFFAFC" font-family="OCRA" font-size="2.9972">27</text>
    </g>
   </g>
  </g>
 </g>
 <g transform="matrix(0.9999, 0, 0, 1, 180.132, 220.539)">
  <g >
   <g >
    <g >
     <text  fill="#FFFAFC" font-family="OCRA" font-size="2.9972">25</text>
    </g>
   </g>
  </g>
 </g>
 <g transform="matrix(0.9999, 0, 0, 1, 172.882, 220.539)">
  <g >
   <g >
    <g >
     <text  fill="#FFFAFC" font-family="OCRA" font-size="2.9972">23</text>
    </g>
   </g>
  </g>
 </g>
 <g transform="matrix(0.9999, 0, 0, 1, 165.689, 220.539)">
  <g >
   <g >
    <g >
     <text  fill="#FFFAFC" font-family="OCRA" font-size="2.9972">21</text>
    </g>
   </g>
  </g>
 </g>
 <g transform="matrix(0.9999, 0, 0, 1, 158.499, 220.539)">
  <g >
   <g >
    <g >
     <text  fill="#FFFAFC" font-family="OCRA" font-size="2.9972">19</text>
    </g>
   </g>
  </g>
 </g>
 <g transform="matrix(0.9999, 0, 0, 1, 151.304, 220.539)">
  <g >
   <g >
    <g >
     <text  fill="#FFFAFC" font-family="OCRA" font-size="2.9972">17</text>
    </g>
   </g>
  </g>
 </g>
 <g transform="matrix(0.9999, 0, 0, 1, 144.112, 220.539)">
  <g >
   <g >
    <g >
     <text  fill="#FFFAFC" font-family="OCRA" font-size="2.9972">15</text>
    </g>
   </g>
  </g>
 </g>
 <g transform="matrix(0.9999, 0, 0, 1, 136.916, 220.539)">
  <g >
   <g >
    <g >
     <text  fill="#FFFAFC" font-family="OCRA" font-size="2.9972">13</text>
    </g>
   </g>
  </g>
 </g>
 <g transform="matrix(0.9999, 0, 0, 1, 129.726, 220.539)">
  <g >
   <g >
    <g >
     <text  fill="#FFFAFC" font-family="OCRA" font-size="2.9972">11</text>
    </g>
   </g>
  </g>
 </g>
 <g transform="matrix(0.9999, 0, 0, 1, 122.533, 220.539)">
  <g >
   <g >
    <g >
     <text  fill="#FFFAFC" font-family="OCRA" font-size="2.9972">9</text>
    </g>
   </g>
  </g>
 </g>
 <g transform="matrix(0.9999, 0, 0, 1, 115.339, 220.539)">
  <g >
   <g >
    <g >
     <text  fill="#FFFAFC" font-family="OCRA" font-size="2.9972">7</text>
    </g>
   </g>
  </g>
 </g>
 <g transform="matrix(0.9999, 0, 0, 1, 108.147, 220.539)">
  <g >
   <g >
    <g >
     <text  fill="#FFFAFC" font-family="OCRA" font-size="2.9972">5</text>
    </g>
   </g>
  </g>
 </g>
 <g transform="matrix(0.9999, 0, 0, 1, 100.952, 220.539)">
  <g >
   <g >
    <g >
     <text  fill="#FFFAFC" font-family="OCRA" font-size="2.9972">3</text>
    </g>
   </g>
  </g>
 </g>
 <g transform="matrix(0.9999, 0, 0, 1, 223.232, 220.539)">
  <g >
   <g >
    <g >
     <text  fill="#FFFAFC" font-family="OCRA" font-size="2.9972">37</text>
    </g>
   </g>
  </g>
 </g>
 <g transform="matrix(0.9999, 0, 0, 1, 216.042, 220.539)">
  <g >
   <g >
    <g >
     <text  fill="#FFFAFC" font-family="OCRA" font-size="2.9972">35</text>
    </g>
   </g>
  </g>
 </g>
 <g transform="matrix(0.9999, 0, 0, 1, 208.848, 220.539)">
  <g >
   <g >
    <g >
     <text  fill="#FFFAFC" font-family="OCRA" font-size="2.9972">33</text>
    </g>
   </g>
  </g>
 </g>
 <g transform="matrix(0.9999, 0, 0, 1, 230.427, 220.539)">
  <g >
   <g >
    <g >
     <text  fill="#FFFAFC" font-family="OCRA" font-size="2.9972">39</text>
    </g>
   </g>
  </g>
 </g>
 <g transform="matrix(0.9999, 0, 0, 1, 237.619, 220.539)">
  <g >
   <g >
    <g >
     <text  fill="#FFFAFC" font-family="OCRA" font-size="2.9972">41</text>
    </g>
   </g>
  </g>
 </g>
 <g transform="matrix(0.9999, 0, 0, 1, 244.812, 220.539)">
  <g >
   <g >
    <g >
     <text  fill="#FFFAFC" font-family="OCRA" font-size="2.9972">43</text>
    </g>
   </g>
  </g>
 </g>
 <path  fill="none" d="M288.203,133.27L74.8181,133.27c-2.798,0,-4.995,2.296,-4.995,5.095l0,153.953c0,2.8,2.197,5.097,4.995,5.097l82.7158,0c3.296,6.593,12.786,11.392,23.975,11.392c11.189,0,20.681,-4.799,23.976,-11.392l82.7172,0c2.798,0,4.992,-2.297,4.992,-5.097L293.194,138.365C293.197,135.57,291.002,133.27,288.203,133.27z"/>
 <linearGradient  gradientTransform="matrix(0.5556 0 0 -0.5556 -526.2091 -462.8649)" id="SVGID_1_" y1="-1345.55" x1="1274.52" y2="-1262.84" gradientUnits="userSpaceOnUse" x2="1274.52">
  <stop  offset="0" style="stop-color:#0392BF"/>
  <stop  offset="0.5998" style="stop-color:#07B9D4"/>
  <stop  offset="1" style="stop-color:#0392BF"/>
 </linearGradient>
 <path  fill="url(#SVGID_1_)" d="M285.906,281.83c2.896,-3.896,3.895,-11.488,3.895,-20.08c0,-8.59399,-0.995998,-16.184,-3.895,-20.083c-0.699,-1.496,-2.198,-2.595,-3.895,-2.795c-0.201,0,-0.4,-0.104,-0.703,-0.104l0,0L83.61,238.768c-0.2,0,-0.399,0,-0.5,0.104c-0.199,0,-0.398,-0.104,-0.599,-0.104c-5.295,0,-8.49197,10.293,-8.49197,22.977c0,12.688,3.296,22.98,8.49197,22.98c0.2,0,0.399,0,0.599,-0.104c0.2,0,0.4,0.104,0.5,0.104l197.601,0l0,0c0.2,0,0.4,0,0.698,-0.104C283.708,284.426,285.207,283.33,285.906,281.83z"/>
 <g >
  <rect  width="178.521" x="92.3018" y="207.1" fill="#404040" gorn="0.1.62.0" height="5.995" id="stroke"/>
  <rect  width="178.521" x="92.3018" y="211.596" fill="#404040" gorn="0.1.62.1" height="5.995" id="stroke_1_"/>
  <g >
   <g >
    <rect  width="2.896" x="93.8002" y="208.701" fill="#010101" gorn="0.1.62.2.0.0" height="2.895" id="connector1pin"/>
    <rect  width="2.897" x="100.992" y="208.701" fill="#010101" gorn="0.1.62.2.0.1" height="2.895" id="connector3pin"/>
    <rect  width="2.897" x="108.185" y="208.701" fill="#010101" gorn="0.1.62.2.0.2" height="2.895" id="connector5pin"/>
    <rect  width="2.897" x="115.377" y="208.701" fill="#010101" gorn="0.1.62.2.0.3" height="2.895" id="connector7pin"/>
    <rect  width="2.897" x="122.57" y="208.701" fill="#010101" gorn="0.1.62.2.0.4" height="2.895" id="connector9pin"/>
    <rect  width="2.897" x="129.763" y="208.701" fill="#010101" gorn="0.1.62.2.0.5" height="2.895" id="connector11pin"/>
    <rect  width="2.897" x="136.956" y="208.701" fill="#010101" gorn="0.1.62.2.0.6" height="2.895" id="connector13pin"/>
    <rect  width="2.897" x="144.148" y="208.701" fill="#010101" height="2.895"/>
   </g>
   <g >
    <rect  width="2.897" x="144.148" y="208.701" fill="#010101" gorn="0.1.62.2.1.0" height="2.895" id="connector15pin"/>
    <rect  width="2.897" x="151.341" y="208.701" fill="#010101" gorn="0.1.62.2.1.1" height="2.895" id="connector17pin"/>
    <rect  width="2.897" x="158.534" y="208.701" fill="#010101" gorn="0.1.62.2.1.2" height="2.895" id="connector19pin"/>
    <rect  width="2.897" x="165.727" y="208.701" fill="#010101" gorn="0.1.62.2.1.3" height="2.895" id="connector21pin"/>
    <rect  width="2.897" x="172.919" y="208.701" fill="#010101" gorn="0.1.62.2.1.4" height="2.895" id="connector23pin"/>
    <rect  width="2.897" x="180.112" y="208.701" fill="#010101" gorn="0.1.62.2.1.5" height="2.895" id="connector25pin"/>
    <rect  width="2.897" x="187.305" y="208.701" fill="#010101" gorn="0.1.62.2.1.6" height="2.895" id="connector27pin"/>
    <rect  width="2.896" x="194.498" y="208.701" fill="#010101" height="2.895"/>
   </g>
   <g >
    <rect  width="2.896" x="194.498" y="208.701" fill="#010101" gorn="0.1.62.2.2.0" height="2.895" id="connector29pin"/>
    <rect  width="2.897" x="201.689" y="208.701" fill="#010101" gorn="0.1.62.2.2.1" height="2.895" id="connector31pin"/>
    <rect  width="2.896" x="208.883" y="208.701" fill="#010101" gorn="0.1.62.2.2.2" height="2.895" id="connector33pin"/>
    <rect  width="2.896" x="216.076" y="208.701" fill="#010101" gorn="0.1.62.2.2.3" height="2.895" id="connector35pin"/>
    <rect  width="2.896" x="223.27" y="208.701" fill="#010101" gorn="0.1.62.2.2.4" height="2.895" id="connector37pin"/>
    <rect  width="2.896" x="230.461" y="208.701" fill="#010101" gorn="0.1.62.2.2.5" height="2.895" id="connector39pin"/>
    <rect  width="2.896" x="237.654" y="208.701" fill="#010101" gorn="0.1.62.2.2.6" height="2.895" id="connector41pin"/>
    <rect  width="2.896" x="244.848" y="208.701" fill="#010101" gorn="0.1.62.2.2.7" height="2.895" id="connector43pin"/>
   </g>
   <rect  width="2.896" x="252.039" y="208.701" fill="#010101" gorn="0.1.62.2.3" height="2.895" id="connector45pin"/>
   <rect  width="2.896" x="259.232" y="208.701" fill="#010101" gorn="0.1.62.2.4" height="2.895" id="connector47pin"/>
   <rect  width="2.897" x="266.425" y="208.701" fill="#010101" gorn="0.1.62.2.5" height="2.895" id="connector49pin"/>
   <g >
    <rect  width="2.896" x="93.8002" y="213.095" fill="#010101" gorn="0.1.62.2.6.0" height="2.898" id="connector0pin"/>
    <rect  width="2.897" x="100.992" y="213.095" fill="#010101" gorn="0.1.62.2.6.1" height="2.898" id="connector2pin"/>
    <rect  width="2.897" x="108.185" y="213.095" fill="#010101" gorn="0.1.62.2.6.2" height="2.898" id="connector4pin"/>
    <rect  width="2.897" x="115.377" y="213.095" fill="#010101" gorn="0.1.62.2.6.3" height="2.898" id="connector6pin"/>
    <rect  width="2.897" x="122.57" y="213.095" fill="#010101" gorn="0.1.62.2.6.4" height="2.898" id="connector8pin"/>
    <rect  width="2.897" x="129.763" y="213.095" fill="#010101" gorn="0.1.62.2.6.5" height="2.898" id="connector10pin"/>
    <rect  width="2.897" x="136.956" y="213.095" fill="#010101" gorn="0.1.62.2.6.6" height="2.898" id="connector12pin"/>
    <rect  width="2.897" x="144.148" y="213.095" fill="#010101" height="2.898"/>
   </g>
   <g >
    <rect  width="2.897" x="144.148" y="213.095" fill="#010101" gorn="0.1.62.2.7.0" height="2.898" id="connector14pin"/>
    <rect  width="2.897" x="151.341" y="213.095" fill="#010101" gorn="0.1.62.2.7.1" height="2.898" id="connector16pin"/>
    <rect  width="2.897" x="158.534" y="213.095" fill="#010101" gorn="0.1.62.2.7.2" height="2.898" id="connector18pin"/>
    <rect  width="2.897" x="165.727" y="213.095" fill="#010101" gorn="0.1.62.2.7.3" height="2.898" id="connector20pin"/>
    <rect  width="2.897" x="172.919" y="213.095" fill="#010101" gorn="0.1.62.2.7.4" height="2.898" id="connector22pin"/>
    <rect  width="2.897" x="180.112" y="213.095" fill="#010101" gorn="0.1.62.2.7.5" height="2.898" id="connector24pin"/>
    <rect  width="2.897" x="187.305" y="213.095" fill="#010101" gorn="0.1.62.2.7.6" height="2.898" id="connector26pin"/>
    <rect  width="2.896" x="194.498" y="213.095" fill="#010101" height="2.898"/>
   </g>
   <g >
    <rect  width="2.896" x="194.498" y="213.095" fill="#010101" gorn="0.1.62.2.8.0" height="2.898" id="connector28pin"/>
    <rect  width="2.897" x="201.689" y="213.095" fill="#010101" gorn="0.1.62.2.8.1" height="2.898" id="connector30pin"/>
    <rect  width="2.896" x="208.883" y="213.095" fill="#010101" gorn="0.1.62.2.8.2" height="2.898" id="connector32pin"/>
    <rect  width="2.896" x="216.076" y="213.095" fill="#010101" gorn="0.1.62.2.8.3" height="2.898" id="connector34pin"/>
    <rect  width="2.896" x="223.27" y="213.095" fill="#010101" gorn="0.1.62.2.8.4" height="2.898" id="connector36pin"/>
    <rect  width="2.896" x="230.461" y="213.095" fill="#010101" gorn="0.1.62.2.8.5" height="2.898" id="connector38pin"/>
    <rect  width="2.896" x="237.654" y="213.095" fill="#010101" gorn="0.1.62.2.8.6" height="2.898" id="connector40pin"/>
    <rect  width="2.896" x="244.848" y="213.095" fill="#010101" height="2.898"/>
   </g>
   <rect  width="2.896" x="244.848" y="213.095" fill="#010101" gorn="0.1.62.2.9" height="2.898" id="connector42pin"/>
   <rect  width="2.896" x="252.039" y="213.095" fill="#010101" gorn="0.1.62.2.10" height="2.898" id="connector44pin"/>
   <rect  width="2.896" x="259.232" y="213.095" fill="#010101" gorn="0.1.62.2.11" height="2.898" id="connector46pin"/>
   <rect  width="2.897" x="266.425" y="213.095" fill="#010101" gorn="0.1.62.2.12" height="2.898" id="connector48pin"/>
  </g>
 </g>
 <rect  width="5.592" x="244.748" y="42.958" fill="#526E32" height="26.775"/>
 <rect  width="5.592" x="244.748" y="86.4173" fill="#526E32" height="12.588"/>
 <path  fill="#ACD14F" d="M32.662,8.991c-11.787,0,-19.98,7.79198,-19.98,18.982c0,10.99,0.5,199.308,0.5,199.308S15.48,37.563,16.18,27.474c0.3,-4.995,5.993,-16.285,16.484,-16.982C34.359,10.388,35.258,8.991,32.662,8.991z"/>
 <g >
  <path  fill="#BCBCBC" d="M187.402,35.965l0,2.298c2.301,1.398,3.798,3.996,3.798,6.793c0,4.496,-3.698,8.09201,-8.19403,8.09201c-4.495,0,-8.19302,-3.597,-8.19302,-8.09201c0,-2.897,1.6,-5.495,3.898,-6.892l0,-2.299c-3.498,1.599,-5.895,5.095,-5.895,9.19102c0,5.595,4.594,10.091,10.19,10.091c5.693,0,10.188,-4.496,10.188,-10.091C193.198,41.06,190.9,37.563,187.402,35.965z"/>
 </g>
</g>
</g><g partID='77260'><g transform='translate(441.248,251.985)' ><g transform='matrix(0,1,-1,0,0,0)'  ><g xmlns="http://www.w3.org/2000/svg" id="breadboard">
 <g xmlns="http://www.w3.org/2000/svg">
  <path xmlns="http://www.w3.org/2000/svg" fill="#8C8C8C" d="M22.168,10.713L22.168,7.24798c-0.004,-0.371999,-0.095,-0.520999,-0.163,-0.585999l0,0c-0.069,-0.0689998,-0.216,-0.172,-0.646,-0.188l0,0L2.746,6.47399c-0.245,0,-0.401,0.0329999,-0.465,0.0619999l0,0c-0.059,0.014,-0.047,0.021,-0.05,0.02l0,0c0.001,0,-0.009,0.021,-0.025,0.0619999l0,0C2.185,6.68099,2.159,6.81599,2.159,7.01798l0,0l0,3.68899L2.16,10.707L0,10.707L0,7.02298C-0.003,6.32599,0.156,5.57999,0.719,5.02199l0,0C1.286,4.47099,2.026,4.32799,2.745,4.32999l0,0l18.612,0c0.824,-0.021,1.629,0.251999,2.188,0.811998l0,0c0.562,0.568999,0.784,1.354,0.78,2.104l0,0l0.002,3.46399L22.168,10.713L22.168,10.713z"/>
  <path xmlns="http://www.w3.org/2000/svg" d="M4.864,5.46499c0,2.178,0.959,4.12699,2.473,5.46699l9.655,0c1.517,-1.338,2.477,-3.28599,2.477,-5.46699c0,-2.177,-0.96,-4.12599,-2.477,-5.46499L7.336,-8.88176e-16C5.823,1.337,4.864,3.28699,4.864,5.46499z"/>
  <rect xmlns="http://www.w3.org/2000/svg" width="9.656" x="7.336" y="0" height="10.932"/>
  <path xmlns="http://www.w3.org/2000/svg" fill="#CCCCCC" d="M17.009,10.306c0,0,-2.349,0.228999,-4.845,0.228999S7.32,10.306,7.32,10.306S7.096,7.96198,7.096,5.46499c0,-2.49599,0.225,-4.84399,0.225,-4.84399s2.348,-0.228999,4.844,-0.228999c2.495,0,4.844,0.228999,4.844,0.228999s0.228,2.34799,0.228,4.84399C17.232,7.96198,17.009,10.306,17.009,10.306z"/>
  <path xmlns="http://www.w3.org/2000/svg" fill="#8F0000" d="M16.482,1.36l-0.031,-0.182l-0.184,-0.0309999c-0.021,-0.00299999,-1.979,-0.311999,-4.104,-0.311999c-1.109,0,-2.163,0.0869998,-2.851,0.146c-0.691,0.0739998,-1.05,0.114,-1.244,0.164c-0.057,0,-0.105,0.021,-0.145,0.0619999C7.861,1.235,7.848,1.288,7.846,1.35C7.786,1.538,7.738,1.9,7.667,2.61299C7.614,3.14899,7.525,4.23999,7.525,5.46999c0,2.136,0.32,4.08799,0.323,4.10499l0.031,0.181l0.181,0.0299999C8.079,9.78998,10.031,10.1,12.165,10.1c2.138,0,4.086,-0.311999,4.104,-0.311999l0.184,-0.0299999l0.029,-0.181c0.004,-0.021,0.32,-1.979,0.32,-4.10499S16.484,1.379,16.482,1.36zM8.326,9.30298c-0.077,-0.523999,-0.29,-2.118,-0.29,-3.83799c0,-1.8,0.188,-3.38199,0.271,-3.83899C8.49,1.599,8.834,1.552,9.271,1.505C9.264,1.548,9.253,1.583,9.253,1.63c0,0.305999,0.188,0.820998,0.21,0.878998C9.508,2.62799,9.63,2.69799,9.755,2.67099c0.012,-0.002,1.157,-0.234999,2.41,-0.234999c1.188,0,2.271,0.209,2.39,0.229999c0.002,0.00499999,0.012,0.02,0.012,0.0609999c0,0.104,-0.049,0.270999,-0.103,0.415999c-0.282,-0.0489999,-0.815,-0.125,-1.434,-0.125c-0.887,0,-1.736,0.158,-1.771,0.165c-0.075,0.021,-0.138,0.0619999,-0.176,0.126c-0.017,0.0299999,-0.103,0.196,-0.103,0.520999c0,0.270999,0.071,0.645999,0.074,0.675999c0.013,0.0619999,0.051,0.127,0.107,0.165c0.057,0.0389999,0.127,0.0519999,0.195,0.0389999c0.003,0,0.389,-0.0749998,0.809,-0.0749998c0.26,0,0.495,0.0279999,0.646,0.0499999c0.021,0.0649999,0.021,0.147,0.021,0.240999c0,0.103,-0.012,0.204,-0.023,0.289999l-0.645,0l-0.858,0c-0.119,0,-0.222,0.0809998,-0.25,0.195c-0.003,0.012,-0.076,0.309999,-0.076,0.603999c0,0.300999,0.075,0.523999,0.082,0.550999c0.03,0.0859998,0.104,0.151,0.194,0.169c0.018,0.00299999,0.436,0.0839998,0.908,0.0839998c0.247,0,0.476,-0.02,0.645,-0.0439999c0.021,0.105,0.025,0.228999,0.025,0.334999c0,0.0739998,-0.009,0.119,-0.016,0.163c-0.28,0.0439999,-0.896,0.129,-1.521,0.129c-0.833,0,-1.535,-0.146,-1.542,-0.146c-0.1,-0.021,-0.2,0.016,-0.26,0.0969998C9.475,7.37698,9.264,7.66598,9.264,8.00998c0,0.344999,0.211,0.629999,0.236,0.660999C9.538,8.71998,9.592,8.75398,9.652,8.76698c0.048,0.012,1.207,0.245999,2.513,0.245999c0.985,0,1.885,-0.134,2.29,-0.203c0.054,0.177,0.105,0.383999,0.105,0.494999c0,0.0829998,-0.029,0.139,-0.062,0.179c-0.676,0.0619999,-1.486,0.113,-2.339,0.113C10.445,9.59298,8.85,9.38098,8.326,9.30298zM16.002,9.30298c-0.189,0.0279999,-0.521,0.0749998,-0.941,0.12c0.006,-0.0409999,0.021,-0.0749998,0.021,-0.123c0,-0.303999,-0.188,-0.819998,-0.211,-0.876998c-0.044,-0.12,-0.167,-0.189,-0.292,-0.163c-0.017,0.002,-1.158,0.234999,-2.41,0.234999c-1.042,0,-2.001,-0.16,-2.303,-0.215C9.825,8.20798,9.782,8.09998,9.782,8.00598c0,-0.0759998,0.026,-0.156,0.056,-0.225c0.275,0.0479999,0.826,0.132,1.465,0.132c0.886,0,1.736,-0.159,1.771,-0.165c0.07,-0.021,0.139,-0.0619999,0.176,-0.128c0.02,-0.0299999,0.104,-0.194,0.104,-0.520999c0,-0.286999,-0.062,-0.659999,-0.062,-0.674999c-0.021,-0.0659999,-0.062,-0.126,-0.104,-0.162c-0.062,-0.0389999,-0.129,-0.0529999,-0.188,-0.0409999C12.975,6.22599,12.586,6.29999,12.17,6.29999c-0.261,0,-0.496,-0.0279999,-0.647,-0.0489999c-0.012,-0.0659999,-0.022,-0.146,-0.022,-0.239999c0,-0.104,0.012,-0.204,0.025,-0.290999l0.644,0l0.855,0c0.119,0,0.226,-0.0819998,0.252,-0.196c0.002,-0.013,0.074,-0.311999,0.074,-0.603999c0,-0.301999,-0.074,-0.523999,-0.082,-0.551999C13.24,4.26999,13.165,4.21799,13.078,4.19999c-0.02,-0.021,-0.437,-0.103,-0.909,-0.103c-0.248,0,-0.475,0.022,-0.645,0.0619999c-0.014,-0.106,-0.026,-0.228999,-0.026,-0.352999c0,-0.0619999,0.009,-0.104,0.015,-0.146c0.28,-0.0439999,0.896,-0.146,1.521,-0.146c0.829,0,1.532,0.153,1.541,0.154c0.118,0.0259999,0.239,-0.0349999,0.288,-0.146c0.021,-0.0599999,0.219,-0.491999,0.219,-0.811998c0,-0.375999,-0.264,-0.529999,-0.398,-0.561999c-0.05,-0.021,-1.207,-0.240999,-2.515,-0.240999c-0.985,0,-1.884,0.136,-2.291,0.2c-0.055,-0.188,-0.11,-0.391999,-0.11,-0.491999c0,-0.0809998,0.031,-0.146,0.06,-0.187c0.681,-0.0619999,1.498,-0.104,2.339,-0.104c1.72,0,3.312,0.212,3.838,0.285999c0.076,0.520999,0.289,2.115,0.289,3.83999C16.289,7.18398,16.08,8.77798,16.002,9.30298z"/>
  <circle xmlns="http://www.w3.org/2000/svg" fill="#8C8C8C" cx="6.433" cy="5.46599" r="1.379"/>
  <circle xmlns="http://www.w3.org/2000/svg" fill="#8C8C8C" cx="17.895" cy="5.46499" r="1.379"/>
  <path xmlns="http://www.w3.org/2000/svg" opacity="0.2" d="M16.992,0L7.336,0C5.823,1.337,4.864,3.28699,4.864,5.46499s0.959,4.12699,2.473,5.46699l9.655,0c1.517,-1.338,2.477,-3.28599,2.477,-5.46699C19.466,3.28699,18.507,1.337,16.992,0zM11.868,9.66098c-2.485,0,-4.5,-2.021,-4.5,-4.49999c0,-2.48499,2.015,-4.50099,4.5,-4.50099c2.483,0,4.501,2.016,4.501,4.50099C16.369,7.64498,14.354,9.66098,11.868,9.66098z"/>
  <circle xmlns="http://www.w3.org/2000/svg" opacity="0.8" fill="#FFFFFF" cx="10.357" cy="3.39799" r="1.17"/>
 </g>
</g>
</g></g></g><path stroke='#8c8c8c' stroke-width='2.0952' stroke-linecap='round' stroke-linejoin='round' fill='none' d='M433.641,211.196L433.641,210.148' />
<path stroke='#8c8c8c' stroke-width='2.0952' stroke-linecap='round' stroke-linejoin='round' fill='none' d='M433.641,237.906L433.641,238.953' />
<g partID='78120'><g transform='translate(437.273,209.101)' ><g transform='matrix(0,1,-1,0,0,0)'  ><g xmlns="http://www.w3.org/2000/svg" id="breadboard">
 <rect xmlns="http://www.w3.org/2000/svg" width="0.72" x="0.36" y="2.5848" fill="none" height="0.72" id="connector0pin"/>
 <rect xmlns="http://www.w3.org/2000/svg" width="0.72" x="29.8202" y="2.5848" fill="none" height="0.72" id="connector1pin"/>
 <line xmlns="http://www.w3.org/2000/svg" fill="none" stroke="#8C8C8C" id="connector0leg" stroke-linecap="round" y1="3.6324" x1="1.0476" y2="3.6324" stroke-width="2.0952" x2="2.0952"/>
 <line xmlns="http://www.w3.org/2000/svg" fill="none" stroke="#8C8C8C" id="connector1leg" stroke-linecap="round" y1="3.6324" x1="29.8526" y2="3.6324" stroke-width="2.0952" x2="28.805"/>
 <path xmlns="http://www.w3.org/2000/svg" fill="none" stroke="#8C8C8C" stroke-width="2.0952" d="M1.0476,3.6324l28.3666,0"/>
 <path xmlns="http://www.w3.org/2000/svg" fill="#D9B477" id="body" d="M10.2478,0.49536c-0.36,-0.1656,-0.9792,-0.2952,-1.3752,-0.2952l-1.9872,0c-0.396,0,-0.72,0.324,-0.72,0.72l0,5.35608c0,0.39672,0.324,0.72,0.72,0.72l1.9872,0c0.396,0,1.0152,-0.13608,1.3752,-0.2952l0.072,-0.03528c0.36,-0.1656,0.9792,-0.2952,1.3752,-0.2952l7.1856,0c0.39672,0,1.01448,0.13608,1.37448,0.2952l0.07272,0.03528c0.36,0.1656,0.97776,0.2952,1.3752,0.2952l1.9872,0c0.39744,0,0.72,-0.32328,0.72,-0.72L24.4102,0.92016c0,-0.396,-0.32256,-0.72,-0.72,-0.72l-1.9872,0c-0.39744,0,-1.0152,0.1368,-1.3752,0.2952l-0.07272,0.036c-0.36,0.1656,-0.97776,0.2952,-1.37448,0.2952l-7.1856,0c-0.396,0,-1.0152,-0.1368,-1.3752,-0.2952L10.2478,0.49536z"/>
 <rect xmlns="http://www.w3.org/2000/svg" width="0.70272" x="22.019" y="0.19368" fill="#ad9f4e" height="6.79536" id="gold_band"/>
 <rect xmlns="http://www.w3.org/2000/svg" width="1.8504" x="16.1726" y="0.82656" fill="#8a3d06" height="5.5368" id="band_rd_multiplier"/>
 <rect xmlns="http://www.w3.org/2000/svg" width="1.8504" x="12.4726" y="0.82656" fill="#c40808" height="5.5368" id="band_2_nd"/>
 <path xmlns="http://www.w3.org/2000/svg" fill="#c40808" id="band_1_st" d="M10.6286,0.63936c-0.1152,-0.036,-0.2232,-0.072,-0.3096,-0.1152l-0.072,-0.036c-0.36,-0.16488,-0.9792,-0.2952,-1.3752,-0.2952l-0.0864,0l0,6.79608l0.0864,0c0.396,0,1.0152,-0.13608,1.3752,-0.2952l0.072,-0.03528c0.0864,-0.04464,0.1944,-0.07992,0.3096,-0.1152L10.6286,0.63936z"/>
 <path xmlns="http://www.w3.org/2000/svg" opacity="0.3" id="Shadow" d="M23.711,4.0896L23.711,4.0896c0,0.37944,-0.13032,0.69912,-0.2952,0.69912l-1.9224,0c-0.38016,0,-0.97776,-0.05616,-1.33272,-0.1224L20.088,4.65048c-0.34488,-0.0648,-0.94896,-0.1224,-1.33344,-0.1224L11.808,4.52808c-0.3816,0,-0.9792,0.0576,-1.332,0.1224l-0.072,0.01512c-0.3456,0.06552,-0.9432,0.1224,-1.332,0.1224l-0.3168,0l-1.0008,0l-0.3096,0c-0.3816,0,-0.6984,0.29376,-0.6984,0.64512l0,0.24696L6.7464,5.8392l0,0.1728c0,0.36,0.3168,0.64512,0.6984,0.64512l1.62,0c0.3816,0,0.9792,-0.1224,1.332,-0.26712l0.072,-0.02808c0.3456,-0.14112,0.9504,-0.26496,1.332,-0.26496l6.94656,0c0.37944,0,0.97704,0.12384,1.33416,0.26568l0.07416,0.02808c0.34488,0.14472,0.94464,0.26712,1.33344,0.26712l2.2248,0c0.38088,0,0.69912,-0.2952,0.69912,-0.64512L24.413,5.472L24.413,4.49928L24.413,2.65536C24.1358,2.76336,23.711,3.06576,23.711,4.0896z"/>
 <rect xmlns="http://www.w3.org/2000/svg" width="0.70272" x="22.019" opacity="0.4" y="3.48336" height="3.15288" id="ShadowExtra"/>
 <path xmlns="http://www.w3.org/2000/svg" opacity="0.25" fill="#FFFFFF" id="ReflexRight" d="M19.751,1.08576c0.22968,0,0.49104,-0.1008,0.6624,-0.1728c0.2016,-0.0792,0.57672,-0.144,0.96624,-0.144l1.46088,0c0.22464,0,0.22464,0.2448,0.22464,0.3744c0,0.1296,-0.01512,0.3816,-0.22464,0.3816l-3.06,0c-0.10728,0,-0.2304,-0.1152,-0.2304,-0.22392C19.5566,1.21536,19.6286,1.08576,19.751,1.08576z"/>
 <circle xmlns="http://www.w3.org/2000/svg" opacity="0.35" fill="#FFFFFF" cx="6.99984" cy="1.13616" id="ReflexLeft" r="0.432"/>
 <rect xmlns="http://www.w3.org/2000/svg" width="0.70272" x="22.019" opacity="0.5" y="0.42336" fill="#FFFF33" height="1.62" id="Reflex_gold"/>
 <rect xmlns="http://www.w3.org/2000/svg" width="0.70272" x="22.019" opacity="0.5" y="0.78336" fill="#FFFFFF" height="0.7488" id="Reflex_extra"/>
</g>
</g></g></g><g partID='78440'><line stroke-linecap='round' stroke='#8c0000' x1='433.641' y1='210.148' x2='267.874' y2='210.148' stroke-width='3.2' /><line stroke-linecap='round' stroke='#cc1414' x1='433.641' y1='210.148' x2='267.874' y2='210.148' stroke-width='1.6' /></g><g partID='78150'><line stroke-linecap='round' stroke='#8c0000' x1='433.641' y1='210.148' x2='433.641' y2='210.148' stroke-width='3.2' /><line stroke-linecap='round' stroke='#cc1414' x1='433.641' y1='210.148' x2='433.641' y2='210.148' stroke-width='1.6' /></g><g partID='78220'><line stroke-linecap='round' stroke='#1b5bb3' x1='433.641' y1='238.953' x2='433.641' y2='253.348' stroke-width='3.2' /><line stroke-linecap='round' stroke='#418dd9' x1='433.641' y1='238.953' x2='433.641' y2='253.348' stroke-width='1.6' /></g><g partID='78380'><line stroke-linecap='round' stroke='#000000' x1='253.487' y1='274.948' x2='253.487' y2='214.544' stroke-width='3.2' /><line stroke-linecap='round' stroke='#404040' x1='253.487' y1='274.948' x2='253.487' y2='214.544' stroke-width='1.6' /></g><g partID='78320'><line stroke-linecap='round' stroke='#000000' x1='433.641' y1='274.948' x2='253.487' y2='274.948' stroke-width='3.2' /><line stroke-linecap='round' stroke='#404040' x1='433.641' y1='274.948' x2='253.487' y2='274.948' stroke-width='1.6' /></g><g partID='78350'><line stroke-linecap='round' stroke='#1b5bb3' x1='433.641' y1='238.953' x2='260.68' y2='238.953' stroke-width='3.2' /><line stroke-linecap='round' stroke='#418dd9' x1='433.641' y1='238.953' x2='260.68' y2='238.953' stroke-width='1.6' /></g><g partID='78410'><line stroke-linecap='round' stroke='#1b5bb3' x1='260.68' y1='238.953' x2='260.68' y2='214.544' stroke-width='3.2' /><line stroke-linecap='round' stroke='#418dd9' x1='260.68' y1='238.953' x2='260.68' y2='214.544' stroke-width='1.6' /></g><g partID='78940'><line stroke-linecap='round' stroke='#000000' x1='253.924' y1='152.549' x2='253.924' y2='138.15' stroke-width='3.2' /><line stroke-linecap='round' stroke='#404040' x1='253.924' y1='152.549' x2='253.924' y2='138.15' stroke-width='1.6' /></g><g partID='79290'><line stroke-linecap='round' stroke='#000000' x1='253.924' y1='138.15' x2='376.04' y2='138.15' stroke-width='3.2' /><line stroke-linecap='round' stroke='#404040' x1='253.924' y1='138.15' x2='376.04' y2='138.15' stroke-width='1.6' /></g><g partID='78870'><line stroke-linecap='round' stroke='#000000' x1='253.487' y1='210.148' x2='253.924' y2='152.549' stroke-width='3.2' /><line stroke-linecap='round' stroke='#404040' x1='253.487' y1='210.148' x2='253.924' y2='152.549' stroke-width='1.6' /></g><g partID='79430'><line stroke-linecap='round' stroke='#d6d63a' x1='203.019' y1='145.348' x2='376.041' y2='145.348' stroke-width='3.2' /><line stroke-linecap='round' stroke='#fff800' x1='203.019' y1='145.348' x2='376.041' y2='145.348' stroke-width='1.6' /></g><g partID='79010'><line stroke-linecap='round' stroke='#d6d63a' x1='203.138' y1='214.544' x2='203.019' y2='145.348' stroke-width='3.2' /><line stroke-linecap='round' stroke='#fff800' x1='203.138' y1='214.544' x2='203.019' y2='145.348' stroke-width='1.6' /></g><g partID='79500'><line stroke-linecap='round' stroke='#ad6a38' x1='210.505' y1='152.548' x2='376.041' y2='152.548' stroke-width='3.2' /><line stroke-linecap='round' stroke='#ef6100' x1='210.505' y1='152.548' x2='376.041' y2='152.548' stroke-width='1.6' /></g><g partID='79080'><line stroke-linecap='round' stroke='#ad6a38' x1='210.331' y1='214.544' x2='210.505' y2='152.548' stroke-width='3.2' /><line stroke-linecap='round' stroke='#ef6100' x1='210.331' y1='214.544' x2='210.505' y2='152.548' stroke-width='1.6' /></g><g partID='79150'><line stroke-linecap='round' stroke='#8c0000' x1='181.561' y1='214.544' x2='181.561' y2='159.749' stroke-width='3.2' /><line stroke-linecap='round' stroke='#cc1414' x1='181.561' y1='214.544' x2='181.561' y2='159.749' stroke-width='1.6' /></g><g partID='79220'><line stroke-linecap='round' stroke='#8c0000' x1='181.561' y1='159.749' x2='181.309' y2='159.749' stroke-width='3.2' /><line stroke-linecap='round' stroke='#cc1414' x1='181.561' y1='159.749' x2='181.309' y2='159.749' stroke-width='1.6' /></g><g partID='79360'><line stroke-linecap='round' stroke='#8c0000' x1='181.309' y1='159.749' x2='376.041' y2='159.749' stroke-width='3.2' /><line stroke-linecap='round' stroke='#cc1414' x1='181.309' y1='159.749' x2='376.041' y2='159.749' stroke-width='1.6' /></g></svg>