<?xml version="1.0" encoding="utf-8"?>
<!-- Generator: Adobe Illustrator 16.0.0, SVG Export Plug-In . SVG Version: 6.00 Build 0)  -->
<!DOCTYPE svg PUBLIC "-//W3C//DTD SVG 1.1//EN" "http://www.w3.org/Graphics/SVG/1.1/DTD/svg11.dtd">
<svg version="1.1" id="Layer_1" xmlns:svg="http://www.w3.org/2000/svg"
	 xmlns="http://www.w3.org/2000/svg" xmlns:xlink="http://www.w3.org/1999/xlink" x="0px" y="0px" width="360px" height="360px"
	 viewBox="0 0 360 360" enable-background="new 0 0 360 360" xml:space="preserve">
<g>
	<g id="breadboard">
		<path fill="#F0EFEF" stroke="#8B9183" stroke-miterlimit="10" d="M358.594,332.374c0,14.839-12.072,26.89-26.936,26.89H26.387
			c-14.864,0-26.936-12.051-26.936-26.89V27.626c0-14.84,12.071-26.89,26.936-26.89h305.271c14.863,0,26.936,12.05,26.936,26.89
			V332.374z"/>
		<line fill="none" stroke="#FFFFFF" stroke-width="3" stroke-miterlimit="10" x1="0" y1="110.028" x2="359.143" y2="110.028"/>
		<path fill="none" stroke="#FFFFFF" stroke-width="3" stroke-miterlimit="10" d="M309.761,88.117
			c0,6.573-4.688,11.951-10.375,11.951l-239.629,0c-5.687,0-10.375-5.378-10.375-11.951v-99.591c0-6.573,4.688-11.951,10.375-11.951
			h239.628c5.686,0,10.375,5.378,10.375,11.951L309.761,88.117L309.761,88.117z"/>
		<path fill="#ABABAB" d="M50.381,1.473v86.644c0,6.573,4.688,11.951,10.374,11.951l14.665,0c-5.687,0-10.375-5.378-10.375-11.951
			l0,0V1.473H50.381z"/>
		<rect id="stroke" x="80.807" y="78.954" fill="#6B6C6C" width="56.265" height="5.976"/>
		<g id="nooks_1_">
			<rect x="86.792" y="80.45" fill="#010101" width="1.097" height="2.888"/>
			<rect x="93.975" y="80.45" fill="#010101" width="1.097" height="2.888"/>
			<rect x="101.158" y="80.45" fill="#010101" width="1.097" height="2.888"/>
			<rect x="108.341" y="80.45" fill="#010101" width="1.097" height="2.888"/>
			<rect x="115.523" y="80.45" fill="#010101" width="1.097" height="2.888"/>
			<rect x="122.707" y="80.45" fill="#010101" width="1.097" height="2.888"/>
			<rect x="129.889" y="80.45" fill="#010101" width="1.097" height="2.888"/>
		</g>
		<rect id="stroke_1_" x="222.068" y="78.954" fill="#6B6C6C" width="56.268" height="5.976"/>
		<g>
			<rect x="228.157" y="80.45" fill="#010101" width="1.095" height="2.888"/>
			<rect x="235.34" y="80.45" fill="#010101" width="1.096" height="2.888"/>
			<rect x="242.523" y="80.45" fill="#010101" width="1.094" height="2.888"/>
			<rect x="249.706" y="80.45" fill="#010101" width="1.094" height="2.888"/>
			<rect x="256.889" y="80.45" fill="#010101" width="1.094" height="2.888"/>
			<rect x="264.07" y="80.45" fill="#010101" width="1.096" height="2.888"/>
			<rect x="271.254" y="80.45" fill="#010101" width="1.096" height="2.888"/>
		</g>
		<rect id="connector0pin" x="82.303" y="80.45" fill="#010101" width="2.893" height="2.888"/>
		<rect id="connector1pin" x="89.486" y="80.45" fill="#010101" width="2.893" height="2.888"/>
		<rect id="connector2pin" x="96.668" y="80.45" fill="#010101" width="2.893" height="2.888"/>
		<rect id="connector3pin" x="103.852" y="80.45" fill="#010101" width="2.893" height="2.888"/>
		<rect id="connector4pin" x="111.034" y="80.45" fill="#010101" width="2.893" height="2.888"/>
		<rect id="connector5pin" x="118.217" y="80.45" fill="#010101" width="2.893" height="2.888"/>
		<rect id="connector6pin" x="125.4" y="80.45" fill="#010101" width="2.893" height="2.888"/>
		<rect id="connector7pin" x="132.583" y="80.45" fill="#010101" width="2.893" height="2.888"/>
		<rect id="connector8pin" x="223.668" y="80.45" fill="#010101" width="2.891" height="2.888"/>
		<rect id="connector9pin" x="230.852" y="80.45" fill="#010101" width="2.892" height="2.888"/>
		<rect id="connector10pin" x="238.033" y="80.45" fill="#010101" width="2.891" height="2.888"/>
		<rect id="connector11pin" x="245.217" y="80.45" fill="#010101" width="2.891" height="2.888"/>
		<rect id="connector12pin" x="252.398" y="80.45" fill="#010101" width="2.891" height="2.888"/>
		<rect id="connector13pin" x="259.582" y="80.45" fill="#010101" width="2.891" height="2.888"/>
		<rect id="connector14pin" x="266.766" y="80.45" fill="#010101" width="2.892" height="2.888"/>
		<rect id="connector15pin" x="273.948" y="80.45" fill="#010101" width="2.89" height="2.888"/>
		<rect y="106.042" fill="#ABABAB" width="359.143" height="2.491"/>
		<path fill="#010101" d="M266.365,296.561H92.08c-6.584,0-11.972-5.377-11.972-11.953v-118.81c0-6.573,5.387-11.952,11.972-11.952
			h174.285c6.583,0,11.971,5.378,11.971,11.952v118.813C278.336,291.184,272.948,296.561,266.365,296.561z"/>
		<path id="background" fill="#FFFFFF" stroke="#9C9C9D" stroke-miterlimit="10" d="M268.625,288.541c0,1.104-0.896,2-2,2H91.545
			c-1.104,0-2-0.896-2-2v-123.84c0-1.104,0.896-2,2-2h175.08c1.104,0,2,0.896,2,2V288.541z"/>
		<rect x="90.271" y="160.952" fill="none" width="177.625" height="16.839"/>
		<g>
			<g transform="matrix(1, 0, 0, 1, 133.474, 173.792)">
				<g>
					<g>
						<g>
							<text transform="matrix(1 0 0 1 1.220703e-04 0)" fill="#010101" font-family="'DroidSans'" font-size="10">Set Pins - Left Side</text>
						</g>
					</g>
				</g>
			</g>
		</g>
		<path opacity="0.3" fill="#676767" enable-background="new    " d="M262.152,211.457c0,1.104-0.896,2-2,2H98.018
			c-1.104,0-2-0.896-2-2v-20.333c0-1.104,0.896-2,2-2h162.136c1.104,0,2,0.896,2,2v20.333H262.152z"/>
		<rect x="103.217" y="194.792" fill="#E94033" width="14.401" height="13"/>
		<rect x="123.229" y="194.792" fill="#F29D44" width="14.401" height="13"/>
		<rect x="143.217" y="194.792" opacity="0.7" fill="#010101" enable-background="new    " width="14.401" height="13"/>
		<rect x="162.217" y="194.791" opacity="0.7" fill="#FFFFFF" enable-background="new    " width="14.401" height="13"/>
		<rect x="181.884" y="194.791" opacity="0.7" fill="#FFFFFF" enable-background="new    " width="14.401" height="13"/>
		<rect x="201.885" y="194.792" opacity="0.7" fill="#FFFFFF" enable-background="new    " width="14.401" height="13"/>
		<rect x="221.098" y="194.792" opacity="0.7" fill="#FFFFFF" enable-background="new    " width="14.4" height="13"/>
		<rect x="240.552" y="194.791" opacity="0.7" fill="#FFFFFF" enable-background="new    " width="14.401" height="13"/>
		<g transform="matrix(1, 0, 0, 1, 103.217, 187.458)">
			<g>
				<g>
					<g>
						<text transform="matrix(1 0 0 1 -2.136230e-04 0)" fill="#010101" font-family="'OCRA'" font-size="6">V+</text>
					</g>
				</g>
			</g>
		</g>
		<g transform="matrix(1, 0, 0, 1, 123.229, 187.458)">
			<g>
				<g>
					<g>
						<text fill="#010101" font-family="'OCRA'" font-size="6">Anl</text>
					</g>
				</g>
			</g>
		</g>
		<g transform="matrix(1, 0, 0, 1, 143.217, 187.458)">
			<g>
				<g>
					<g>
						<text transform="matrix(1 0 0 1 -1.831055e-04 0)" fill="#010101" font-family="'OCRA'" font-size="6">GND</text>
					</g>
				</g>
			</g>
		</g>
		<g transform="matrix(1, 0, 0, 1, 162.217, 187.459)">
			<g>
				<g>
					<g>
						<text transform="matrix(1 0 0 1 -1.831055e-04 0)" fill="#010101" font-family="'OCRA'" font-size="6">Nul</text>
					</g>
				</g>
			</g>
		</g>
		<g transform="matrix(1, 0, 0, 1, 181.884, 187.457)">
			<g>
				<g>
					<g>
						<text transform="matrix(1 0 0 1 -2.136230e-04 3.051758e-05)" fill="#010101" font-family="'OCRA'" font-size="6">Nul</text>
					</g>
				</g>
			</g>
		</g>
		<g transform="matrix(1, 0, 0, 1, 201.885, 187.457)">
			<g>
				<g>
					<g>
						<text transform="matrix(1 0 0 1 -2.441406e-04 3.051758e-05)" fill="#010101" font-family="'OCRA'" font-size="6">Nul</text>
					</g>
				</g>
			</g>
		</g>
		<g transform="matrix(1, 0, 0, 1, 221.097, 187.457)">
			<g>
				<g>
					<g>
						<text transform="matrix(1 0 0 1 6.713867e-04 3.051758e-05)" fill="#010101" font-family="'OCRA'" font-size="6">Nul</text>
					</g>
				</g>
			</g>
		</g>
		<g transform="matrix(1, 0, 0, 1, 240.552, 187.457)">
			<g>
				<g>
					<g>
						<text transform="matrix(1 0 0 1 -2.441406e-04 3.051758e-05)" fill="#010101" font-family="'OCRA'" font-size="6">Nul</text>
					</g>
				</g>
			</g>
		</g>
		<line fill="none" stroke="#FFFFFF" stroke-miterlimit="10" x1="101.072" y1="165.125" x2="96.018" y2="169.372"/>
		<line fill="none" stroke="#FFFFFF" stroke-miterlimit="10" x1="96.018" y1="169.372" x2="101.63" y2="173.792"/>
		<polygon fill="#E3E3E3" stroke="#010101" stroke-miterlimit="10" points="259.016,216.514 246.098,204.875 233.663,216.514 
			90.335,216.514 90.335,289.5 267.585,289.5 267.585,216.514 		"/>
		<g id="Circles">
			<circle fill="none" stroke="#9C9C9D" stroke-miterlimit="10" cx="113.327" cy="229.998" r="5"/>
			<circle fill="none" stroke="#9C9C9D" stroke-miterlimit="10" cx="113.327" cy="245.792" r="5"/>
			<circle fill="none" stroke="#9C9C9D" stroke-miterlimit="10" cx="113.327" cy="261.792" r="5"/>
			<circle fill="none" stroke="#9C9C9D" stroke-miterlimit="10" cx="113.327" cy="277.792" r="5"/>
			<circle fill="none" stroke="#9C9C9D" stroke-miterlimit="10" cx="189.085" cy="229.872" r="5"/>
			<circle fill="none" stroke="#9C9C9D" stroke-miterlimit="10" cx="189.085" cy="245.792" r="5"/>
			<circle fill="none" stroke="#9C9C9D" stroke-miterlimit="10" cx="189.085" cy="261.792" r="5"/>
			<circle fill="none" stroke="#9C9C9D" stroke-miterlimit="10" cx="189.085" cy="277.792" r="5"/>
		</g>
		<g>
			<g transform="matrix(1, 0, 0, 1, 196.285, 232.792)">
				<g>
					<g>
						<g>
							<text transform="matrix(1 0 0 1 1.525879e-04 -1.525879e-05)" fill="#509A44" font-family="'DroidSans'" font-size="8">Digital Input</text>
						</g>
					</g>
				</g>
			</g>
		</g>
		<g transform="matrix(1, 0, 0, 1, 121.918, 232.792)">
			<g>
				<g>
					<g>
						<text transform="matrix(1 0 0 1 -3.051758e-05 -1.525879e-05)" fill="#9C9C9D" font-family="'DroidSans'" font-size="8">Disconnected</text>
					</g>
				</g>
			</g>
		</g>
		<g transform="matrix(1, 0, 0, 1, 121.918, 248.626)">
			<g>
				<g>
					<g>
						<text transform="matrix(1 0 0 1 -3.051758e-05 -3.051758e-05)" fill="#E94033" font-family="'DroidSans'" font-size="8">Power</text>
					</g>
				</g>
			</g>
		</g>
		<g transform="matrix(1, 0, 0, 1, 121.918, 264.959)">
			<g>
				<g>
					<g>
						<text transform="matrix(1 0 0 1 -3.051758e-05 -3.051758e-05)" fill="#010101" font-family="'DroidSans'" font-size="8">Ground</text>
					</g>
				</g>
			</g>
		</g>
		<g transform="matrix(1, 0, 0, 1, 121.918, 280.626)">
			<g>
				<g>
					<g>
						<text transform="matrix(1 0 0 1 -3.051758e-05 -3.051758e-05)" fill="#F29D44" font-family="'DroidSans'" font-size="8">Analog</text>
					</g>
				</g>
			</g>
		</g>
		<g>
			<g transform="matrix(1, 0, 0, 1, 196.285, 248.626)">
				<g>
					<g>
						<g>
							<text transform="matrix(1 0 0 1 1.525879e-04 -3.051758e-05)" fill="#5397D1" font-family="'DroidSans'" font-size="8">Digital Output</text>
						</g>
					</g>
				</g>
			</g>
		</g>
		<g>
			<g transform="matrix(1, 0, 0, 1, 196.285, 264.959)">
				<g>
					<g>
						<g>
							<text transform="matrix(1 0 0 1 1.525879e-04 -3.051758e-05)" fill="#7C63AB" font-family="'DroidSans'" font-size="8">12C Clock</text>
						</g>
					</g>
				</g>
			</g>
		</g>
		<g>
			<g transform="matrix(1, 0, 0, 1, 196.69, 280.626)">
				<g>
					<g>
						<g>
							<text transform="matrix(1 0 0 1 -5.493164e-04 -3.051758e-05)" fill="#B774B1" font-family="'DroidSans'" font-size="8">12C Data</text>
						</g>
					</g>
				</g>
			</g>
		</g>
		<circle fill="#9C9C9D" cx="113.327" cy="229.871" r="3.25"/>
		<path id="background_1_" fill="none" stroke="#9C9C9D" stroke-miterlimit="10" d="M268.5,288.541c0,1.104-0.896,2-2,2H91.42
			c-1.104,0-2-0.896-2-2v-123.84c0-1.104,0.896-2,2-2H266.5c1.104,0,2,0.896,2,2V288.541z"/>
	</g>
</g>
<g>
	<g transform="translate(89.7645,47.0591)">
		<g id="breadboard_1_">
			<g>
				<path fill="#8C8C8C" d="M22.168,10.713V7.248c-0.004-0.372-0.095-0.521-0.163-0.586l0,0c-0.069-0.069-0.216-0.172-0.646-0.188
					l0,0H2.746c-0.245,0-0.401,0.033-0.465,0.062l0,0c-0.059,0.014-0.047,0.021-0.05,0.02l0,0c0.001,0-0.009,0.021-0.025,0.062l0,0
					c-0.021,0.063-0.047,0.198-0.047,0.4l0,0v3.689H2.16H0V7.023C-0.003,6.326,0.156,5.58,0.719,5.022l0,0
					C1.286,4.471,2.026,4.328,2.745,4.33l0,0h18.612c0.824-0.021,1.629,0.252,2.188,0.812l0,0c0.562,0.569,0.784,1.354,0.78,2.104
					l0,0l0.002,3.464L22.168,10.713L22.168,10.713z"/>
				<path d="M4.864,5.465c0,2.178,0.959,4.127,2.473,5.467h9.655c1.517-1.338,2.477-3.286,2.477-5.467
					c0-2.177-0.96-4.126-2.477-5.465H7.336C5.823,1.337,4.864,3.287,4.864,5.465z"/>
				<rect x="7.336" y="0" width="9.656" height="10.932"/>
				<path fill="#CCCCCC" d="M17.009,10.306c0,0-2.349,0.229-4.845,0.229c-2.496,0-4.844-0.229-4.844-0.229S7.096,7.962,7.096,5.465
					c0-2.496,0.225-4.844,0.225-4.844s2.348-0.229,4.844-0.229c2.495,0,4.844,0.229,4.844,0.229s0.228,2.348,0.228,4.844
					C17.232,7.962,17.009,10.306,17.009,10.306z"/>
				<path fill="#8F0000" d="M16.482,1.36l-0.031-0.182l-0.184-0.031c-0.021-0.003-1.979-0.312-4.104-0.312
					c-1.109,0-2.163,0.087-2.851,0.146c-0.691,0.074-1.05,0.114-1.244,0.164c-0.057,0-0.105,0.021-0.145,0.062
					C7.861,1.235,7.848,1.288,7.846,1.35C7.786,1.538,7.738,1.9,7.667,2.613C7.614,3.149,7.525,4.24,7.525,5.47
					c0,2.136,0.32,4.088,0.323,4.104l0.031,0.181l0.181,0.03C8.079,9.79,10.031,10.1,12.165,10.1c2.138,0,4.086-0.312,4.104-0.312
					l0.184-0.03l0.029-0.181c0.004-0.021,0.32-1.979,0.32-4.105S16.484,1.379,16.482,1.36z M8.326,9.303
					c-0.077-0.524-0.29-2.118-0.29-3.838c0-1.8,0.188-3.382,0.271-3.839C8.49,1.599,8.834,1.552,9.271,1.505
					C9.264,1.548,9.253,1.583,9.253,1.63c0,0.306,0.188,0.821,0.21,0.879C9.508,2.628,9.63,2.698,9.755,2.671
					c0.012-0.002,1.157-0.235,2.41-0.235c1.188,0,2.271,0.209,2.39,0.23c0.002,0.005,0.012,0.02,0.012,0.061
					c0,0.104-0.049,0.271-0.103,0.416c-0.282-0.049-0.815-0.125-1.434-0.125c-0.887,0-1.736,0.158-1.771,0.165
					c-0.075,0.021-0.138,0.062-0.176,0.126c-0.017,0.03-0.103,0.196-0.103,0.521c0,0.271,0.071,0.646,0.074,0.676
					c0.013,0.062,0.051,0.127,0.107,0.165c0.057,0.039,0.127,0.052,0.195,0.039c0.003,0,0.389-0.075,0.809-0.075
					c0.26,0,0.495,0.028,0.646,0.05c0.021,0.065,0.021,0.147,0.021,0.241c0,0.103-0.012,0.204-0.023,0.29h-0.645h-0.858
					c-0.119,0-0.222,0.081-0.25,0.195c-0.003,0.012-0.076,0.31-0.076,0.604c0,0.301,0.075,0.524,0.082,0.551
					c0.03,0.086,0.104,0.151,0.194,0.169c0.018,0.003,0.436,0.084,0.908,0.084c0.247,0,0.476-0.02,0.645-0.044
					c0.021,0.105,0.025,0.229,0.025,0.335c0,0.074-0.009,0.119-0.016,0.163c-0.28,0.044-0.896,0.129-1.521,0.129
					c-0.833,0-1.535-0.146-1.542-0.146c-0.1-0.021-0.2,0.016-0.26,0.097C9.475,7.377,9.264,7.666,9.264,8.01
					c0,0.345,0.211,0.63,0.236,0.661C9.538,8.72,9.592,8.754,9.652,8.767c0.048,0.012,1.207,0.246,2.513,0.246
					c0.985,0,1.885-0.134,2.29-0.203c0.054,0.177,0.105,0.384,0.105,0.495c0,0.083-0.029,0.139-0.062,0.179
					c-0.676,0.062-1.486,0.113-2.339,0.113C10.445,9.593,8.85,9.381,8.326,9.303z M16.002,9.303
					c-0.189,0.028-0.521,0.075-0.941,0.12c0.006-0.041,0.021-0.075,0.021-0.123c0-0.304-0.188-0.82-0.211-0.877
					c-0.044-0.12-0.167-0.189-0.292-0.163c-0.017,0.002-1.158,0.235-2.41,0.235c-1.042,0-2.001-0.16-2.303-0.215
					C9.825,8.208,9.782,8.1,9.782,8.006c0-0.076,0.026-0.156,0.056-0.225c0.275,0.048,0.826,0.132,1.465,0.132
					c0.886,0,1.736-0.159,1.771-0.165c0.07-0.021,0.139-0.062,0.176-0.128c0.02-0.03,0.104-0.194,0.104-0.521
					c0-0.287-0.062-0.66-0.062-0.675c-0.021-0.066-0.062-0.126-0.104-0.162C13.126,6.223,13.059,6.209,13,6.221
					C12.975,6.226,12.586,6.3,12.17,6.3c-0.261,0-0.496-0.028-0.647-0.049c-0.012-0.066-0.022-0.146-0.022-0.24
					c0-0.104,0.012-0.204,0.025-0.291h0.644h0.855c0.119,0,0.226-0.082,0.252-0.196c0.002-0.013,0.074-0.312,0.074-0.604
					c0-0.302-0.074-0.524-0.082-0.552C13.24,4.27,13.165,4.218,13.078,4.2c-0.02-0.021-0.437-0.103-0.909-0.103
					c-0.248,0-0.475,0.022-0.645,0.062c-0.014-0.106-0.026-0.229-0.026-0.353c0-0.062,0.009-0.104,0.015-0.146
					c0.28-0.044,0.896-0.146,1.521-0.146c0.829,0,1.532,0.153,1.541,0.154c0.118,0.026,0.239-0.035,0.288-0.146
					c0.021-0.06,0.219-0.492,0.219-0.812c0-0.376-0.264-0.53-0.398-0.562c-0.05-0.021-1.207-0.241-2.515-0.241
					c-0.985,0-1.884,0.136-2.291,0.2c-0.055-0.188-0.11-0.392-0.11-0.492c0-0.081,0.031-0.146,0.06-0.187
					c0.681-0.062,1.498-0.104,2.339-0.104c1.72,0,3.312,0.212,3.838,0.286c0.076,0.521,0.289,2.115,0.289,3.84
					C16.289,7.184,16.08,8.778,16.002,9.303z"/>
				<circle fill="#8C8C8C" cx="6.433" cy="5.466" r="1.379"/>
				<circle fill="#8C8C8C" cx="17.895" cy="5.465" r="1.379"/>
				<path opacity="0.2" enable-background="new    " d="M16.992,0H7.336C5.823,1.337,4.864,3.287,4.864,5.465
					c0,2.178,0.959,4.127,2.473,5.467h9.655c1.517-1.338,2.477-3.286,2.477-5.467C19.466,3.287,18.507,1.337,16.992,0z
					 M11.868,9.661c-2.485,0-4.5-2.021-4.5-4.5c0-2.485,2.015-4.501,4.5-4.501c2.483,0,4.501,2.016,4.501,4.501
					C16.369,7.645,14.354,9.661,11.868,9.661z"/>
				<circle opacity="0.8" fill="#FFFFFF" enable-background="new    " cx="10.357" cy="3.398" r="1.17"/>
			</g>
		</g>
	</g>
</g>
<path fill="none" stroke="#8C8C8C" stroke-width="2.0952" stroke-linecap="round" stroke-linejoin="round" d="M62.648,54.108
	l0.105,0.382"/>
<path fill="none" stroke="#8C8C8C" stroke-width="2.0952" stroke-linecap="round" stroke-linejoin="round" d="M89.358,54.108
	l1.697,0.388"/>
<g>
	<g transform="translate(60.5531,50.4762)">
		<g id="breadboard_2_">
			<rect id="connector0pin_1_" x="0.36" y="2.585" fill="none" width="0.72" height="0.72"/>
			<rect id="connector1pin_1_" x="29.82" y="2.585" fill="none" width="0.72" height="0.72"/>
			<g id="connector0leg">
			</g>
			<g id="connector1leg">
			</g>
			<path fill="none" stroke="#8C8C8C" stroke-width="2.0952" d="M1.047,3.632h28.367"/>
			<path id="body" fill="#D9B477" d="M10.248,0.495C9.888,0.33,9.269,0.2,8.873,0.2H6.885c-0.396,0-0.72,0.324-0.72,0.72v5.356
				c0,0.397,0.324,0.72,0.72,0.72h1.987c0.396,0,1.015-0.136,1.375-0.295l0.072-0.035C10.68,6.5,11.299,6.37,11.695,6.37h7.186
				c0.397,0,1.015,0.136,1.375,0.295l0.073,0.035c0.36,0.166,0.978,0.295,1.375,0.295h1.987c0.397,0,0.72-0.323,0.72-0.72V0.92
				c0-0.396-0.323-0.72-0.72-0.72h-1.987c-0.397,0-1.015,0.137-1.375,0.295l-0.073,0.036c-0.36,0.166-0.978,0.295-1.375,0.295
				h-7.186c-0.396,0-1.015-0.137-1.375-0.295L10.248,0.495z"/>
			<rect id="gold_band" x="22.019" y="0.194" fill="#AD9F4E" width="0.703" height="6.795"/>
			<rect id="band_rd_multiplier" x="16.172" y="0.827" fill="#8A3D06" width="1.851" height="5.537"/>
			<rect id="band_2_nd" x="12.473" y="0.827" fill="#C40808" width="1.85" height="5.537"/>
			<path id="band_1_st" fill="#C40808" d="M10.629,0.64c-0.115-0.036-0.223-0.072-0.31-0.115l-0.072-0.036
				c-0.36-0.165-0.979-0.295-1.375-0.295H8.785v6.796h0.086c0.396,0,1.015-0.136,1.375-0.295l0.072-0.035
				c0.086-0.045,0.194-0.08,0.31-0.115V0.64z"/>
			<path id="Shadow" opacity="0.3" enable-background="new    " d="M23.711,4.09L23.711,4.09c0,0.379-0.13,0.699-0.295,0.699h-1.922
				c-0.38,0-0.978-0.056-1.333-0.122L20.088,4.65c-0.345-0.064-0.949-0.122-1.333-0.122h-6.946c-0.382,0-0.979,0.058-1.332,0.122
				l-0.072,0.015c-0.346,0.066-0.943,0.123-1.332,0.123H8.755h-1h-0.31c-0.382,0-0.699,0.294-0.699,0.645V5.68v0.159v0.173
				c0,0.36,0.317,0.645,0.699,0.645h1.62c0.382,0,0.979-0.123,1.332-0.267l0.072-0.028c0.346-0.141,0.95-0.265,1.332-0.265h6.946
				c0.379,0,0.977,0.124,1.334,0.266l0.074,0.028c0.345,0.145,0.944,0.267,1.333,0.267h2.225c0.381,0,0.699-0.295,0.699-0.645V5.472
				V4.499V2.655C24.136,2.764,23.711,3.066,23.711,4.09z"/>
			<rect id="ShadowExtra" x="22.019" y="3.483" opacity="0.4" enable-background="new    " width="0.703" height="3.153"/>
			<path id="ReflexRight" opacity="0.25" fill="#FFFFFF" enable-background="new    " d="M19.751,1.086
				c0.229,0,0.491-0.101,0.662-0.173c0.202-0.079,0.577-0.144,0.966-0.144h1.461c0.225,0,0.225,0.245,0.225,0.375
				c0,0.129-0.015,0.381-0.225,0.381h-3.06c-0.107,0-0.23-0.115-0.23-0.224C19.557,1.215,19.629,1.086,19.751,1.086z"/>
			<circle id="ReflexLeft" opacity="0.35" fill="#FFFFFF" enable-background="new    " cx="7" cy="1.136" r="0.432"/>
			
				<rect id="Reflex_gold" x="22.019" y="0.423" opacity="0.5" fill="#FFFF33" enable-background="new    " width="0.703" height="1.62"/>
			
				<rect id="Reflex_extra" x="22.019" y="0.784" opacity="0.5" fill="#FFFFFF" enable-background="new    " width="0.703" height="0.749"/>
		</g>
	</g>
</g>
<g>
	<line fill="none" stroke="#AD6A38" stroke-width="3.2" stroke-linecap="round" x1="91.055" y1="54.497" x2="90.933" y2="81.894"/>
	<line fill="none" stroke="#EF6100" stroke-width="1.6" stroke-linecap="round" x1="91.055" y1="54.497" x2="90.933" y2="81.894"/>
</g>
<g>
	<line fill="none" stroke="#1B5BB3" stroke-width="3.2" stroke-linecap="round" x1="91.055" y1="54.497" x2="91.128" y2="54.666"/>
	<line fill="none" stroke="#418DD9" stroke-width="1.6" stroke-linecap="round" x1="91.055" y1="54.497" x2="91.128" y2="54.666"/>
</g>
<g>
	<line fill="none" stroke="#000000" stroke-width="3.2" stroke-linecap="round" x1="98.114" y1="81.894" x2="112.728" y2="54.666"/>
	<line fill="none" stroke="#404040" stroke-width="1.6" stroke-linecap="round" x1="98.114" y1="81.894" x2="112.728" y2="54.666"/>
</g>
<g>
	<line fill="none" stroke="#8C0000" stroke-width="3.2" stroke-linecap="round" x1="62.754" y1="54.49" x2="83.75" y2="81.894"/>
	<line fill="none" stroke="#CC1414" stroke-width="1.6" stroke-linecap="round" x1="62.754" y1="54.49" x2="83.75" y2="81.894"/>
</g>
</svg>
